<?xml version="1.0" standalone="no"?>
<!DOCTYPE svg PUBLIC "-//W3C//DTD SVG 1.1//EN" "http://www.w3.org/Graphics/SVG/1.1/DTD/svg11.dtd" >
<svg xmlns="http://www.w3.org/2000/svg">
<metadata></metadata>
<defs>
<font id="formatabold" horiz-adv-x="1193" >
<font-face units-per-em="2048" ascent="1522" descent="-526" />
<missing-glyph horiz-adv-x="598" />
<glyph horiz-adv-x="2048" />
<glyph horiz-adv-x="2048" />
<glyph unicode="&#xd;" horiz-adv-x="681" />
<glyph unicode=" "  horiz-adv-x="598" />
<glyph unicode="&#x09;" horiz-adv-x="598" />
<glyph unicode="&#xa0;" horiz-adv-x="598" />
<glyph unicode="!" horiz-adv-x="641" d="M152 1534l12 16l407 21l19 -10q-45 -451 -53 -1018l-15 -19l-299 -6l-10 14q-27 610 -61 1002zM162 8v328l14 12q27 0 80 -1t80 -1h39l184 6l10 -6l-4 -340l-10 -8l-383 -4z" />
<glyph unicode="&#x22;" horiz-adv-x="811" d="M45 1397q0 68 48 102.5t108 34.5q57 0 97 -35t40 -92q0 -6 -1 -18.5t-1 -16.5l-109 -536h-65l-111 512q0 6 -2 15t-3 17.5t-1 16.5zM473 1399q0 59 44 97t110 38q57 0 97 -35t40 -92q0 -25 -2 -35l-109 -536h-63l-113 512q-4 33 -4 51z" />
<glyph unicode="#" horiz-adv-x="1366" d="M86 381v252h229l27 196h-205v254h240l51 361h256l-53 -361h205l49 361h256l-49 -361h186v-254h-223l-25 -196h201v-252h-238l-53 -383h-256l53 383h-202l-54 -383h-254l52 383h-193zM569 633h203l29 196h-205z" />
<glyph unicode="$" horiz-adv-x="1150" d="M100 82l6 293l25 10q78 -61 125 -83.5t131 -45.5l74 297l-78 51q-68 45 -103.5 73t-85 80t-72 117.5t-22.5 147.5q0 174 119 285q119 115 344 114q35 0 105 -4l18 109l16 14l160 -2l12 -12l-30 -129q88 -18 182 -62l8 -12l-26 -268l-25 -6q-109 63 -203 92l-75 -287 l75 -53q68 -43 108 -74t96 -86t84 -122.5t28 -147.5q0 -29 -6.5 -60.5t-29 -90t-84 -114t-155.5 -92.5q-125 -45 -325 -45l-27 -123l-16 -12l-160 -2l-10 14l36 140q-115 29 -208 82zM469 1067q0 -50 86 -113l57 201q-55 4 -80 -6q-63 -25 -63 -82zM555 242q55 -4 88 10 q61 23 62 80q-1 68 -91 119z" />
<glyph unicode="%" horiz-adv-x="1878" d="M61 930q0 76 4.5 130t24 124.5t54 114.5t101 76t159 32t159 -29.5t101 -72.5t55 -111t26 -125t5.5 -135q0 -76 -5.5 -132.5t-26 -125t-55 -111.5t-101 -72.5t-159.5 -29.5q-90 0 -155.5 29.5t-101 72.5t-55 110.5t-25 124t-5.5 130.5zM322 936q0 -150 12 -217 q18 -82 69 -82q57 0 72 82q14 72 14 217q0 141 -14 213q-14 84 -72 84q-33 0 -53 -35q-29 -51 -28 -262zM535 18q37 86 221 504l209 486q84 195 149 364l14 14q23 -2 112 -1t95 1l8 -18q-356 -764 -575 -1348l-12 -14q-176 -6 -207 -6zM1128 448.5q0 75.5 4.5 129t24 124 t54 114.5t101 76t159 32t159 -30t101 -73t55 -110.5t26 -124t5.5 -134t-5.5 -135t-26 -125t-55 -110.5t-101 -72.5t-159.5 -29.5q-90 0 -155.5 29.5t-101 72.5t-55 111.5t-25 124t-5.5 131zM1389 455q0 -152 12 -217q18 -84 69 -84q57 0 72 84q14 72 14 217q0 141 -14 213 q-16 82 -72 82q-33 0 -53 -35q-29 -51 -28 -260z" />
<glyph unicode="&#x26;" horiz-adv-x="1449" d="M31 375q0 80 28.5 148.5t84 122.5t97.5 85t103 70q-39 51 -58.5 81.5t-40 91t-20.5 128.5q0 133 70 221t164 121t207 33q201 0 297 -93q104 -96 104 -245q0 -100 -52 -179t-188 -178l172 -221q129 158 197 359l16 2l203 -246l4 -23q-49 -84 -84 -133t-147 -192 q117 -150 264 -312l-10 -18q-66 2 -197 2q-172 -4 -254 -8l-16 10l-68 84q-186 -119 -395 -119q-195 0 -338 107.5t-143 300.5zM451 418q0 -55 38.5 -93t106.5 -38q53 0 131 37l-182 227q-31 -23 -43.5 -34t-31.5 -39.5t-19 -59.5zM580 1151q-1 -41 77 -150q96 76 97 144 q0 43 -21.5 66.5t-36 26.5t-28.5 3q-39 0 -63.5 -27.5t-24.5 -62.5z" />
<glyph unicode="'" horiz-adv-x="425" d="M68 1399q0 63 47 99t108 36q18 0 35.5 -4t29 -10.5t23 -13.5t16.5 -13t9 -12l6 -6q18 -31 14 -103l-108 -536h-66l-110 512q-4 33 -4 51z" />
<glyph unicode="(" horiz-adv-x="681" d="M109 563q0 303 145 656q80 188 164 335l16 13h211l17 -21q-190 -524 -191 -987q0 -395 191 -977l-17 -18h-211l-16 12q-88 158 -150 301q-160 379 -159 686z" />
<glyph unicode=")" horiz-adv-x="681" d="M20 -416q68 201 82 258q109 379 109 729q0 403 -191 975l17 21h211l16 -13q309 -541 309 -989q0 -299 -153 -676q-66 -152 -156 -313l-16 -12h-211z" />
<glyph unicode="*" horiz-adv-x="980" d="M72 1257q66 100 116 201l17 2q121 -92 198 -145l-43 239l11 11l233 2l10 -8l-41 -246q100 90 197 160l14 -5q51 -96 121 -200l-2 -15l-239 -102l241 -80l4 -12q-80 -147 -110 -209l-13 -4l-215 151l56 -241l-11 -11l-241 -6l-6 9l26 251q-94 -92 -184 -159l-12 2 l-123 202l4 15l225 92l-227 92z" />
<glyph unicode="+" horiz-adv-x="1366" d="M86 467v260h469v465h260v-465h465v-260h-465v-467h-260v467h-469z" />
<glyph unicode="," horiz-adv-x="555" d="M2 -188q76 266 125 524l10 12q211 2 406 14l8 -14q-115 -256 -119 -268q-8 -16 -54 -129t-56 -135l-15 -11l-297 -8z" />
<glyph unicode="-" horiz-adv-x="811" d="M70 436l12 287l12 14h639l8 -10l-14 -287l-12 -14h-637z" />
<glyph unicode="." horiz-adv-x="555" d="M70 336l8 12l395 4l8 -8v-334l-8 -8l-387 -8l-8 12z" />
<glyph unicode="/" horiz-adv-x="1067" d="M-33 -289q100 227 196.5 451.5t162.5 374.5q250 582 413 1013l13 15h274l8 -19q-41 -86 -98 -227q-188 -446 -285 -666q-182 -422 -385 -940l-12 -12l-274 -8z" />
<glyph unicode="0" d="M70 692q0 150 14 259.5t43 174t46 92t44 56.5q129 141 377 141q131 0 227.5 -37t154.5 -98t92 -156.5t46 -197t12 -234.5q0 -248 -37.5 -376t-107.5 -203q-129 -143 -379 -144q-160 0 -268.5 51.5t-163.5 152.5t-77.5 224t-22.5 295zM469 690q0 -104 6 -205 q4 -100 23 -161q31 -88 100 -88q68 0 94 81q35 101 35 377q0 293 -39 385q-29 70 -92 70q-61 0 -88 -66q-39 -82 -39 -393z" />
<glyph unicode="1" d="M221 1092l17 245l14 13l563 73l14 -12q-6 -621 -6 -821q1 -302 15 -574l-17 -14q-221 0 -411 -8l-11 14q14 553 13 1082l-179 -11z" />
<glyph unicode="2" d="M18 23q184 229 390 503q119 164 154.5 227.5t35.5 133.5q0 72 -49 137.5t-168 65.5q-92 0 -154.5 -29t-142.5 -90l-18 14l4 318l12 14q90 35 134 50t128 32.5t166 17.5q252 0 388 -131t136 -331.5t-170 -411.5q-25 -31 -88 -108t-88 -107l383 12l12 -14 q-12 -162 -14 -303l-14 -23q-47 0 -131 1t-127 1q-127 0 -434.5 -4t-337.5 -4z" />
<glyph unicode="3" d="M84 1077l16 289l15 20q258 -4 389 -4q193 0 516 11l14 -23q-137 -272 -241 -496q82 -12 137 -45q164 -102 164 -340q0 -225 -154 -374q-154 -145 -448 -146q-195 0 -386 70l-6 14l4 305l19 11q47 -33 75.5 -50.5t86 -37t116.5 -19.5q111 0 174.5 56.5t63.5 150.5 q0 86 -60.5 138t-142.5 52q-51 0 -108 -28l-15 12q51 113 179 432l-394 -12z" />
<glyph unicode="4" d="M63 272v217q233 481 248 512q23 45 166 377l19 15l479 6l16 -15q-8 -350 -6 -845l145 6l15 -13l-15 -262l-16 -14h-129l10 -246l-18 -14q-195 2 -381 -6l-12 12l12 254h-522zM395 539h211l12 571q-78 -193 -129 -336z" />
<glyph unicode="5" d="M104 51q8 131 9 301l20 10q55 -33 89 -50t92.5 -34.5t117.5 -17.5q113 0 167 54.5t54 136.5q0 84 -62.5 136t-176.5 52q-125 0 -258 -61l-19 10q4 76 17 243q27 344 32 541l15 14q49 0 147 -1t148 -1q135 0 512 9l10 -17l-25 -291l-14 -14l-463 10l-16 -155q90 12 131 12 q229 0 351 -128t122 -325q0 -80 -25.5 -159.5t-86 -164.5t-184.5 -138.5t-294 -53.5q-199 0 -397 64z" />
<glyph unicode="6" d="M66 643q0 377 172 580q166 195 505 194q135 0 289 -49l12 -16l-16 -289l-22 -10q-104 80 -240 80q-125 0 -201 -62q-35 -29 -55.5 -65.5t-25.5 -64.5t-11 -73q123 72 244 72q209 0 315.5 -139t106.5 -320q0 -137 -44 -239.5t-119 -159.5t-163 -85t-190 -28 q-557 0 -557 674zM465 553q0 -190 33 -248q43 -72 118 -72q59 0 94 38t43.5 76t8.5 79q0 82 -38 141.5t-114 59.5q-77 0 -145 -74z" />
<glyph unicode="7" d="M88 1075l27 295l14 16q399 1 989 13l12 -23q-16 -55 -52 -166.5t-54 -167.5q-33 -100 -92.5 -291.5t-69.5 -226.5q-74 -242 -100 -336q-8 -29 -21.5 -86t-19.5 -86l-16 -16q-236 2 -449 -6l-16 16q39 115 122 338q100 264 279 723l-541 -8z" />
<glyph unicode="8" d="M57 410q0 147 90 252q51 55 132 88q-78 41 -113 79q-72 84 -72 203q0 33 8.5 71t29 87t66.5 95t111 77q123 55 299 55q121 0 214 -29.5t144.5 -72.5t83 -100.5t42 -100.5t10.5 -84q0 -115 -66 -192q-40 -51 -118 -88q39 -16 58 -27.5t48 -38.5t53 -66q59 -94 60 -208 q0 -168 -109 -289q-139 -150 -434 -150q-199 0 -334 76q-90 51 -146.5 151.5t-56.5 211.5zM487 403q0 -88 35 -122.5t74 -34.5q45 0 76 35q35 39 35 137q0 72 -21.5 114.5t-43 53t-44.5 10.5q-111 0 -111 -193zM489 1018q0 -63 19 -100q33 -57 88 -58q18 0 29 4 q80 29 80 154q-1 59 -13 88q-31 72 -94 72q-8 0 -16.5 -1t-26.5 -9.5t-31.5 -24t-24 -48t-10.5 -77.5z" />
<glyph unicode="9" d="M55 922q0 221 136.5 358t381.5 137q174 0 301 -76q254 -152 254 -602q0 -365 -172 -575q-78 -94 -195.5 -144.5t-316.5 -50.5q-125 0 -282 49l-12 17l16 289l20 10q109 -80 242 -80q109 0 182 47q43 29 69 72t31 68.5t13 76.5q-51 -27 -76.5 -38t-71 -22.5t-96.5 -11.5 q-207 0 -315.5 136.5t-108.5 339.5zM432 963q0 -86 39 -145.5t109 -59.5q77 0 149 76q0 186 -31 245q-41 74 -123 74q-76 0 -109.5 -58.5t-33.5 -131.5z" />
<glyph unicode=":" horiz-adv-x="641" d="M156 336l6 12l397 4l8 -8v-334l-8 -8l-387 -8l-10 12zM158 743v330l8 12l399 7l4 -7v-337l-10 -9l-391 -6z" />
<glyph unicode=";" horiz-adv-x="641" d="M86 -188q63 195 127 524l10 12q209 2 404 14l8 -14q-37 -86 -51 -117q-68 -147 -176 -415l-17 -11l-295 -8zM215 741v330l8 12l395 9l9 -9l-4 -338l-11 -8l-389 -6z" />
<glyph unicode="&#x3c;" horiz-adv-x="1366" d="M0 592v254l1366 606v-285l-1004 -448l1004 -443v-282z" />
<glyph unicode="=" horiz-adv-x="1366" d="M0 254v260h1366v-260h-1366zM0 680v260h1366v-260h-1366z" />
<glyph unicode="&#x3e;" horiz-adv-x="1366" d="M0 -6v282l1001 443l-1001 448v285l1366 -606v-254z" />
<glyph unicode="?" horiz-adv-x="937" d="M49 1210l8 285l15 16q203 72 356 72q172 0 281 -49q104 -47 161.5 -143.5t57.5 -221.5q0 -137 -94 -299q-29 -51 -119 -161l-45 -60q-41 -55 -45 -121l-11 -16l-360 -8l-10 14q2 66 21.5 106t72.5 99l49 61q127 166 127 297q0 100 -60.5 151.5t-146.5 51.5 q-98 0 -241 -90zM225 8v328l15 12q27 0 80 -1t79 -1h39q124 4 183 6l10 -6l-4 -340l-9 -8l-382 -4z" />
<glyph unicode="@" horiz-adv-x="1835" d="M141 487q0 258 122 480.5t340 356.5t478 134q158 0 280 -53t192.5 -140t105.5 -187.5t35 -209.5q0 -293 -149.5 -513t-338.5 -220q-104 0 -155 70q-16 23 -29 74q-113 -141 -256 -142q-102 0 -180 66q-104 90 -105 280q0 221 128 404.5t319 183.5q59 0 106 -23.5 t64.5 -44t42.5 -55.5l18 80h187l-68 -323q-57 -279 -57 -330q0 -66 39 -66q45 0 105 71t108.5 203t48.5 273q0 121 -42 210t-112 137t-146.5 70.5t-158.5 22.5q-297 0 -525.5 -241.5t-228.5 -565.5q0 -135 44 -241.5t109.5 -168t151.5 -102t163 -55t151 -14.5 q123 0 232.5 29.5t198.5 87t133 92.5t103 90l97 -125q-61 -59 -112.5 -99t-151 -103.5t-223.5 -98.5t-261 -35q-102 0 -205.5 20.5t-213 75t-193.5 135t-137.5 213t-53.5 297.5zM692 494q0 -49 13.5 -85t30 -52.5t38 -25.5t31.5 -10.5t18 -1.5q96 0 174 127.5t76 270.5 q-2 86 -44 129t-95 43q-100 0 -171 -127t-71 -268z" />
<glyph unicode="A" horiz-adv-x="1409" d="M0 14l446 1422l13 10l520 6l14 -10l416 -1426l-14 -16h-211q-31 0 -66 -1t-78 -3t-67 -2l-15 10l-77 348h-400l-80 -344l-14 -8h-377zM557 647h254l-51 217l-68 310q-29 -123 -82 -320z" />
<glyph unicode="B" horiz-adv-x="1409" d="M102 1434l9 12l374 4l90 2q47 2 142 2q195 0 287 -22.5t153 -73.5q111 -92 111 -250q0 -78 -33 -145q-51 -104 -186 -175q51 -10 80.5 -18t75.5 -36.5t77 -71.5q61 -90 61 -213q0 -158 -94 -267q-53 -61 -118.5 -99t-163 -54.5t-170 -21.5t-213.5 -7h-463l-10 10 q10 446 10 803q0 344 -19 621zM541 268h38q133 0 189 25q100 45 100 151q0 119 -114 146q-28 6 -148 6h-65v-328zM545 879q78 0 112 2q92 6 134.5 51t42.5 106q0 66 -39 105q-23 23 -59 34t-83 11h-108v-309z" />
<glyph unicode="C" horiz-adv-x="1236" d="M266.5 1276.5q200.5 200.5 534.5 200.5q174 0 368 -76l9 -15q-14 -158 -19 -337l-14 -9q-119 100 -263 100q-1 0 -1 1q-143 -1 -247 -101q-106 -100 -106 -317q0 -119 34 -205t91.5 -130t119 -63.5t128.5 -19.5q143 0 273 92l16 -8l-14 -346l-11 -12q-207 -61 -356 -62 q-315 0 -498 146q-245 196 -245 587q0 374 200.5 574.5z" />
<glyph unicode="D" horiz-adv-x="1449" d="M106 1436l13 10h569q70 0 113 -2t124 -16.5t135 -39t120.5 -75.5t107.5 -121t68.5 -180.5t27.5 -249.5q0 -309 -133 -502q-61 -86 -143 -143.5t-175 -80t-160.5 -29.5t-154.5 -7q-106 0 -489 -6l-12 16q4 199 4 432q0 662 -15 994zM557 322q8 0 28.5 -1.5t35.5 -1.5 q121 0 188 60q117 98 117 360q0 274 -113 353q-57 41 -172 41q-27 -1 -84 -5v-806z" />
<glyph unicode="E" horiz-adv-x="1150" d="M104 1434l13 12h921l11 -8l-15 -283l-12 -10h-473v-260l448 8l13 -14l-17 -269l-14 -12h-426v-283q205 0 520 13l12 -13l-20 -303l-18 -12q-168 0 -276.5 1t-113.5 1q-147 0 -536 -8l-10 14q8 313 8 641q0 492 -15 785z" />
<glyph unicode="F" horiz-adv-x="1067" d="M104 1440l13 8h188q373 0 723 6l14 -10l-16 -283l-14 -14h-467l2 -289l442 12l10 -10q-12 -131 -18 -280l-14 -15h-422l12 -553l-14 -12h-88q-174 0 -330 -6l-14 12q0 76 2 224.5t4 222.5q0 53 1 163.5t1 165.5q0 233 -15 658z" />
<glyph unicode="G" horiz-adv-x="1449" d="M66 707q0 111 21.5 214t77.5 206.5t141 179t223.5 123t314.5 47.5q211 0 430 -91l6 -14l-25 -340l-18 -6q-63 41 -95 59.5t-100.5 40t-140.5 21.5q-147 0 -244 -78q-137 -111 -137 -362q0 -201 90 -306q76 -92 219 -92q47 0 99 13v43q0 184 -15 352l11 12h89q174 0 326 6 l11 -10q-8 -182 -9 -332q0 -106 5 -323l-9 -17q-98 -29 -150 -42t-148.5 -27.5t-196.5 -14.5q-346 0 -527 146q-102 82 -175.5 228t-73.5 364z" />
<glyph unicode="H" horiz-adv-x="1536" d="M109 1434l8 12q55 -2 168 -2q74 0 270 8l8 -12v-514h412l-8 510l10 10l438 6l10 -8q-8 -524 -8 -789q0 -315 8 -643l-10 -12q-258 0 -436 -6l-8 12q0 59 3 219t3 221q0 109 -2 164q-57 2 -172 2q-94 0 -240 -6v-596l-8 -10l-434 -6l-10 10q8 748 8 823q0 231 -10 607z " />
<glyph unicode="I" horiz-adv-x="681" d="M109 1436l10 10h93q184 0 351 6l8 -10q-10 -342 -10 -563q0 -367 14 -869l-8 -10h-92q-183 0 -354 -6l-8 10q0 184 4 549q4 233 4 350q0 203 -12 533z" />
<glyph unicode="J" horiz-adv-x="768" d="M6 14q4 135 4 152q0 25 -1 73t-1 72l12 13q31 -6 62 -7q154 0 154 222q0 307 -19 897l14 10h201q37 0 111.5 2t111.5 4l15 -8q-2 -106 -2 -311q0 -163 4 -478v-84v-54q0 -157 -10 -226q-47 -301 -445 -301q-68 0 -199 12z" />
<glyph unicode="K" horiz-adv-x="1409" d="M96 1434l13 12h87q173 0 343 6l12 -10l-14 -633l254 451l98 178l14 8l451 6l12 -14q-242 -317 -424 -600l266 -490q135 -233 195 -319l-6 -19l-471 -18l-19 8q-75 168 -157 334l-215 411q6 -307 6 -309q4 -248 16 -426l-12 -10h-87q-172 0 -333 -6l-14 12q10 375 10 586 q0 483 -25 842z" />
<glyph unicode="L" horiz-adv-x="1110" d="M113 1438l12 10l440 4l15 -8q-2 -25 -5 -77t-4 -79q0 -10 -10 -969q248 2 508 13l10 -13l-20 -307l-10 -12q-129 1 -260 1q-326 0 -658 -7l-10 12q2 135 2 262q0 174 -4 523q0 438 -6 647z" />
<glyph unicode="M" horiz-adv-x="1921" d="M78 6q47 651 67 1430l13 10h276q98 2 291 6l12 -6l228 -877q8 31 21 88.5t20 79.5q20 84 63 235.5t55 201.5q45 176 66 264l14 8l555 6l13 -12q8 -309 28 -697q6 -121 19.5 -364.5t19.5 -366.5l-12 -12h-70q-145 0 -332 -6l-10 12l-16 801v307l-76 -278l-33 -125 l-186 -699l-17 -12h-65q-130 0 -254 -6l-14 12q-102 399 -168 645l-33 121l-96 354l-8 -290q-8 -348 -9 -523q0 -84 4 -301l-14 -12l-342 -6z" />
<glyph unicode="N" horiz-adv-x="1492" d="M102 1434l13 12h182l178 6l12 -6q109 -160 230 -322q141 -193 317 -442v112q0 334 -10 642l8 10l334 6l12 -8q0 -63 -1 -449.5t-1 -459.5q0 -186 6 -523l-12 -12l-287 -6l-16 8q-92 131 -231 322l-381 516l28 -828l-10 -12h-60q-125 0 -284 -6l-12 10q6 211 6 348 q0 631 -21 1082z" />
<glyph unicode="O" horiz-adv-x="1492" d="M66 702q0 305 106 484q174 293 573 293q305 0 474 -158q198 -191 208 -580v-33q0 -280 -98 -446q-172 -291 -590 -291q-326 0 -499.5 189.5t-173.5 541.5zM516 713q0 -428 229 -428q232 0 232 422v22q-4 440 -223 440q-133 0 -185.5 -119.5t-52.5 -336.5z" />
<glyph unicode="P" horiz-adv-x="1323" d="M109 4q14 569 14 942q0 162 -8 490l12 10l424 4l98 2q139 -2 213 -7t164 -38t152 -96q113 -115 112 -326q0 -250 -157 -389q-55 -47 -123 -77t-158 -41t-144.5 -13t-160.5 -2q0 -31 -1 -92.5t-1 -91.5q0 -98 6 -267l-10 -12h-90q-177 0 -328 -6zM549 766q145 0 201 31 q96 53 96 182q0 127 -101 162q-44 16 -196 16v-391z" />
<glyph unicode="Q" horiz-adv-x="1492" d="M66 715q0 352 166.5 557t512.5 205q285 0 449 -140q233 -195 233 -635q0 -268 -92 -417q-39 -63 -90 -108.5t-87 -64t-95 -42.5q219 -78 448 -146l15 -22q-82 -129 -164 -295l-19 -2q-82 47 -274 147q-311 162 -315 164q-57 29 -129 59l-21 5q-102 20 -135 30 q-193 61 -298 238.5t-105 466.5zM516 711q0 -430 234 -430q63 0 123.5 49t84.5 164q21 90 21 233q0 176 -39 293q-51 149 -184 149h-2q-133 0 -185.5 -119.5t-52.5 -338.5z" />
<glyph unicode="R" horiz-adv-x="1323" d="M96 1436l10 10h369l107 2q66 1 116 1t86 -1q70 -2 160 -22.5t146 -63.5q53 -41 98 -125t45 -205q0 -119 -47 -217q-27 -53 -65 -93t-65.5 -55.5t-72.5 -35.5l186 -363l140 -239l-9 -19l-432 -18l-22 16l-111 258l-129 271l-67 -2q0 -262 14 -523l-12 -12l-422 -6l-10 12 q10 659 10 793q0 338 -23 637zM539 815h22q250 0 250 182q0 160 -166 160q-12 0 -51 -1t-51 -1z" />
<glyph unicode="S" d="M111 57q12 189 14 330l18 6q29 -25 45 -35q119 -86 301 -86q63 0 108.5 15.5t64 40t24.5 43t6 37.5q0 37 -26.5 67.5t-50 42.5t-68.5 31l-103 41q-57 27 -89.5 43t-86 55t-83 80t-52 107.5t-22.5 146.5q0 207 131 330q139 127 409 127q207 0 391 -80l9 -13l-19 -319 l-18 -8q-57 45 -90 63q-104 61 -219 62q-76 0 -119 -31q-45 -37 -45 -94q0 -78 137 -133l113 -47q141 -57 217 -129q118 -108 118 -292q0 -144 -82 -272q-147 -217 -536 -217q-203 0 -381 68z" />
<glyph unicode="T" horiz-adv-x="1110" d="M6 1139l12 295l15 12h1071l10 -2q-12 -150 -16 -301l-13 -13l-311 11q0 -63 -1 -190.5t-1 -190.5q0 -315 10 -746l-14 -14h-72q-151 0 -354 -6l-12 12q10 520 12 1131l-326 -9z" />
<glyph unicode="U" horiz-adv-x="1409" d="M90 1436l8 10q242 0 441 6l10 -10q-12 -541 -12 -813q0 -166 22 -230q43 -127 178 -127q88 0 142 54q31 31 45 82t16 95t2 138q0 391 -14 797l10 8l375 6l12 -8l-10 -844l-2 -78q-4 -63 -6 -95t-13.5 -92.5t-30 -98t-52 -84t-83.5 -78.5q-150 -104 -419 -105 q-365 0 -506 178q-45 55 -68.5 133t-29 128.5t-7.5 140.5v63q0 395 -8 824z" />
<glyph unicode="V" horiz-adv-x="1323" d="M-8 1427l6 13q160 4 238 6q35 2 103 6t103 6l15 -8q78 -401 114 -573q78 -340 119 -508q12 55 33.5 159.5t32.5 149.5q100 471 153 756l13 12l385 6l10 -8q-274 -897 -418 -1432l-16 -12q-264 0 -463 -6l-12 10q-6 25 -42 156t-57 202q-20 68 -61 202t-60 202 q-14 43 -129 434z" />
<glyph unicode="W" horiz-adv-x="2048" d="M0 1427l8 15q74 0 213 4l215 12l17 -8l178 -1104q94 508 190 1088l13 12l440 6l12 -10q98 -629 182 -1094l185 1090l14 8l369 6l12 -8l-352 -1434l-13 -10q-68 2 -202 2q-141 0 -299 -8l-13 12q-6 31 -31.5 192.5t-29.5 180.5q-10 57 -32.5 172t-33.5 172 q-6 37 -17 106.5t-17 100.5q-59 -301 -78 -402q-16 -76 -32.5 -161.5t-36 -191t-30.5 -163.5l-16 -12q-61 2 -186 2q-127 0 -301 -8l-13 12q-152 723 -315 1421z" />
<glyph unicode="X" horiz-adv-x="1280" d="M6 4q115 201 232 395q59 102 192 346q-131 223 -168 291q-127 221 -225 385l12 19q37 2 112 4t111 2q39 2 114 6t112 6l20 -12q78 -203 152 -365q84 184 149 353l12 12h84q168 0 338 6l7 -14q-131 -211 -396 -688q242 -449 406 -727l-10 -23l-447 -12l-22 12 q-45 115 -168 397l-181 -385l-18 -12q-229 0 -408 -6z" />
<glyph unicode="Y" horiz-adv-x="1366" d="M-12 1425l8 15q236 2 469 18l14 -8q55 -129 248 -485q127 276 209 475l10 6l400 6l8 -10q-211 -356 -449 -815v-121q0 -295 8 -494l-16 -12q-236 0 -434 -6l-10 12q12 264 12 508v107q-356 616 -477 804z" />
<glyph unicode="Z" d="M33 8q291 618 370 778q76 152 156 351l-457 -9l-14 13l21 291l12 14q66 0 198 -1t199 -1q145 0 629 8l8 -10l-518 -1131l489 15l11 -13l-21 -295l-12 -18h-631q-207 0 -428 -6z" />
<glyph unicode="[" horiz-adv-x="681" d="M102 1546l13 15l553 8l12 -13q-4 -94 -4 -116q0 -53 2 -82l-10 -15l-201 7q-2 -182 -2 -547q0 -389 10 -1030h197l10 -9l-6 -194l-17 -12q-55 2 -167 2q-154 0 -361 -9l-12 17q2 211 2 637q0 524 -19 1341z" />
<glyph unicode="\" horiz-adv-x="1067" d="M33 1552l2 13q147 0 274 2l23 -19q51 -135 209 -512q68 -156 194 -471q211 -514 338 -792q2 -2 12.5 -25t14.5 -35l-2 -12q-20 0 -64.5 -1t-66.5 -1q-90 -4 -138 -4l-28 18q-31 76 -205 510t-205 510q-215 528 -342 783q-4 12 -16 36z" />
<glyph unicode="]" horiz-adv-x="681" d="M0 1354l6 194l17 13q53 -2 161 -2q145 0 367 8l12 -17q-2 -217 -2 -651q0 -481 19 -1325l-13 -14l-553 -9l-12 13q4 82 4 119q0 53 -2 79l10 15l201 -6q0 96 1 288.5t1 288.5q0 373 -10 998l-197 -3z" />
<glyph unicode="^" horiz-adv-x="1492" d="M233 635l416 811h213l398 -811h-283l-225 475l-238 -475h-281z" />
<glyph unicode="_" horiz-adv-x="1024" d="M-20 -154h1064v-102h-1064v102z" />
<glyph unicode="`" horiz-adv-x="598" d="M45 1622l8 12q199 -2 361 4l12 -10q49 -178 125 -358l-10 -15h-265l-16 9q-94 166 -215 358z" />
<glyph unicode="a" d="M45 330q0 61 14.5 113.5t47 90t65.5 67.5t88 52.5t95 37t107.5 26.5t103.5 18t104 15q4 18 1 37.5t-12.5 35t-39 24.5t-76.5 9q-68 0 -136.5 -14.5t-110.5 -28.5t-122 -47l-14 8l12 258l12 17q233 71 439 71h6q252 0 360 -98q49 -45 70.5 -104.5t23.5 -133.5 q1 -37 1 -80.5t-1 -95.5l-2 -131q0 -254 17 -461l-13 -16h-63q-134 0 -324 -6l-14 14v78q-176 -106 -297 -106q-147 0 -244.5 99t-97.5 251zM436 383q0 -51 33 -80t84 -29q59 0 125 41v211q-35 -2 -52.5 -4t-52 -8t-53 -15.5t-41 -24.5t-33 -37.5t-10.5 -53.5z" />
<glyph unicode="b" horiz-adv-x="1280" d="M88 1550l14 13q203 31 412 71l10 -16l-14 -578q143 82 272 82q213 0 335 -142t122 -364q0 -264 -152 -423q-61 -66 -138 -108t-165 -58.5t-142 -20.5t-138 -6h-391l-15 12q8 807 8 965q0 334 -18 573zM512 262q152 0 215 53q94 76 94 248q0 109 -42 193t-144 84 q-45 0 -123 -31v-547z" />
<glyph unicode="c" horiz-adv-x="980" d="M51 545q0 156 61.5 284.5t172.5 198.5q147 94 374 94q123 0 287 -57l10 -12q-20 -129 -32 -281l-23 -6q-23 23 -37 35t-54 26.5t-91 14.5q-102 0 -171 -76t-69 -209q0 -129 67.5 -210t201.5 -81q102 1 196 60l14 -11l-12 -278l-10 -12q-174 -49 -287 -50 q-139 0 -247.5 38t-173 95.5t-105.5 136.5t-56.5 151.5t-15.5 148.5z" />
<glyph unicode="d" horiz-adv-x="1280" d="M49 500q0 330 209 491q70 53 168 79t162 28q32 1 74 1t96 -1v61q0 223 -13 389l13 13l409 71l13 -10q-10 -201 -13 -567q0 -35 -2 -251t-2 -257q0 -244 11 -531l-13 -16h-81q-160 0 -306 -6l-10 14l2 90q-131 -123 -307 -123q-190 0 -300 155t-110 370zM471 524 q0 -119 33 -182q47 -82 129 -82q45 0 123 41q3 157 3 339q0 91 -1 187q-8 0 -26.5 1t-29.5 1q-231 0 -231 -305z" />
<glyph unicode="e" horiz-adv-x="1150" d="M49 547q0 152 49 266.5t131 179t176.5 96t196.5 31.5q197 0 318 -96q66 -51 106.5 -122t56 -155.5t19.5 -138t4 -133.5l-14 -16l-635 -8q10 -55 28.5 -88t65.5 -62q72 -43 188 -43q190 0 314 82l14 -10l-10 -262l-13 -19q-37 -16 -69 -29q-135 -45 -316 -45 q-248 0 -391 99q-219 150 -219 473zM446 676l275 4q-8 184 -131 184q-29 0 -51 -10q-87 -37 -93 -178z" />
<glyph unicode="f" horiz-adv-x="768" d="M2 831l14 248l17 19l137 -4q-4 78 -4 116q0 102 11 167t48 132.5t121 100t215 32.5q78 0 230 -16l10 -12q-16 -158 -21 -268l-16 -11q-45 12 -70 13q-43 0 -69.5 -18.5t-36.5 -60.5t-11.5 -77t-1.5 -102l177 8l10 -15l-21 -252l-16 -12l-147 2v-83q0 -372 16 -724 l-14 -14h-69q-144 0 -339 -6l-14 12q12 332 12 819l-156 -6z" />
<glyph unicode="g" d="M63 -205q0 137 130 236l-80 63l2 17q102 188 153 292q-70 37 -80 46q-51 39 -88 108.5t-37 155.5q0 164 121 272q131 117 437 117q39 0 83 -2t68 -2h399l15 -11q-10 -135 -15 -256l-10 -12l-139 37q45 -90 45 -160q0 -117 -74.5 -197.5t-171 -113.5t-198.5 -33 q-27 0 -84 4l-39 -86l184 -28l76 -15q381 -63 381 -340q0 -66 -24.5 -128t-83 -126.5t-178.5 -104.5t-286 -40q-193 0 -311 49q-111 45 -153 118t-42 140zM418 -154q0 -72 57 -104.5t121 -32.5q74 0 110.5 27.5t36.5 64.5q0 33 -27.5 55.5t-55 30t-76.5 15.5q-18 2 -74.5 15 t-73.5 17q-18 -63 -18 -88zM455 741q0 -35 6 -68.5t36.5 -72.5t82.5 -39q47 0 81.5 36t34.5 118q0 74 -31.5 123t-91.5 49q-55 0 -86.5 -45t-31.5 -101z" />
<glyph unicode="h" horiz-adv-x="1280" d="M72 1550l8 13q199 29 422 71l12 -12v-621q176 121 344 121q141 0 229 -88q51 -51 64.5 -119.5t15.5 -199.5v-156q2 -315 17 -543l-17 -16q-25 0 -78 1t-77 1q-111 0 -244 -8l-12 18q0 31 1 84.5t1 81.5q0 41 -1 126t-1 128v74q0 170 -21.5 236.5t-95.5 66.5 q-45 0 -119 -37q2 -348 19 -758l-15 -14h-87q-172 0 -324 -6l-11 14q4 455 4 682q0 268 -4 426t-10 228.5t-20 205.5z" />
<glyph unicode="i" horiz-adv-x="641" d="M86 1049l12 12q219 31 430 72l11 -17q-4 -303 -4 -454q0 -316 20 -648l-14 -14h-94q-184 0 -334 -6l-15 14q12 369 13 555q0 244 -25 486zM96 1542l15 14l403 54l12 -15v-327l-12 -13q-160 -18 -391 -59l-19 12z" />
<glyph unicode="j" horiz-adv-x="641" d="M-72 -258l6 14q104 25 139.5 84.5t35.5 218.5q0 23 -2.5 162t-2.5 166q-4 455 -24 660l14 14q166 23 422 72l14 -13q-8 -162 -8 -297q0 -43 3 -306t3 -314v-88q1 -33 1 -63q0 -123 -19 -202q-25 -100 -127 -196q-139 -131 -387 -180l-14 8zM80 1542l12 14l404 54l12 -15 v-327l-12 -13q-178 -20 -392 -59l-18 12v57q0 118 -6 277z" />
<glyph unicode="k" horiz-adv-x="1236" d="M74 1546l14 17l420 71l14 -12q-12 -508 -12 -999q141 264 231 460l19 15h69q143 0 322 6l14 -21q-25 -37 -131 -196q-35 -49 -131 -199q203 -426 322 -659l-17 -17l-434 -18l-18 14q-57 154 -246 580q0 -328 14 -572l-16 -16q-55 2 -170 2q-152 -4 -227 -8l-17 12 q10 276 10 533q0 653 -30 1007z" />
<glyph unicode="l" horiz-adv-x="641" d="M82 1548l12 13l424 73l17 -18q0 -68 -2.5 -479.5t-2.5 -491.5q1 -273 17 -631l-15 -14h-92q-181 0 -331 -6l-15 14q10 362 10 586q0 528 -3 657t-19 297z" />
<glyph unicode="m" horiz-adv-x="1878" d="M90 1049l12 12q213 29 424 72l17 -17l-2 -125q51 39 84.5 61.5t96 45t126.5 22.5q162 0 233 -129q63 49 121 76q111 51 242 51q145 0 229 -78q39 -37 59.5 -93t23.5 -92t5 -99l2 -68q0 -313 15 -674l-15 -14q-221 0 -405 -6l-15 12q4 389 5 500q0 201 -17 242 q-25 61 -90 61q-31 0 -96 -25q0 -362 12 -770l-12 -14q-205 0 -402 -6l-16 14q4 139 4 492q0 190 -21.5 249.5t-80.5 59.5q-39 0 -101 -31q0 -375 13 -764l-15 -14l-405 -6l-17 14q8 451 9 572q0 236 -23 469z" />
<glyph unicode="n" horiz-adv-x="1280" d="M78 1053l12 12q219 31 416 72l20 -19l-4 -112q57 41 88 59q111 59 244 59q174 0 254 -125q41 -61 50 -144t9 -275v-111q5 -260 17 -455l-17 -14h-82q-163 0 -321 -6l-10 12q0 35 1 106.5t1 106.5v96q0 287 -15 379q-14 113 -104 113q-39 0 -113 -37q0 -14 -1 -47 q0 -98 5 -361q2 -162 11 -348l-11 -14h-84q-167 0 -327 -6l-13 14q4 258 5 387q0 365 -31 658z" />
<glyph unicode="o" horiz-adv-x="1236" d="M57 539q0 274 119 413q143 168 445 168q274 0 417 -141q142 -137 142 -430q0 -242 -90 -373q-143 -201 -467 -201q-158 0 -271 43q-295 106 -295 521zM481 528q0 -117 17 -182q29 -117 120 -117q66 0 103 76q35 65 35 262q0 301 -133 301q-86 0 -114 -87t-28 -253z" />
<glyph unicode="p" horiz-adv-x="1280" d="M82 1047l12 14q199 27 406 72l18 -19l-2 -92q127 98 283 98q207 0 321.5 -155.5t114.5 -362.5q0 -135 -47 -254q-63 -164 -215 -254q-68 -41 -154 -63.5t-135 -26.5t-149 -8l16 -496l-12 -12q-27 2 -82 2q-27 2 -82 2q-31 0 -256 -10l-15 12q8 471 9 705q0 485 -31 848z M532 262q49 2 77 5t72 22.5t77 58.5q61 78 61 217q0 115 -35 178q-47 88 -143 88h-3q-38 0 -106 -28v-541z" />
<glyph unicode="q" horiz-adv-x="1280" d="M45 496q0 233 98 374q55 84 130 134.5t178.5 70t176.5 23.5q50 3 122 3q37 0 79 -1h89l241 4l17 -12q-10 -311 -11 -465l2 -236l4 -334q4 -297 19 -557l-14 -12q-25 0 -73 1t-71 1q-70 0 -266 -8l-14 12l8 555q-133 -74 -266 -74q-201 0 -325 137.5t-124 383.5zM473 553 q0 -303 178 -303h3q37 0 104 24v549q-26 1 -48 1q-44 0 -71 -5q-166 -37 -166 -266z" />
<glyph unicode="r" horiz-adv-x="854" d="M88 1049l12 14q225 29 426 72l15 -17l-4 -205q33 68 49 95q84 129 225 129q35 0 72 -7l14 -12q-49 -207 -86 -422l-20 -6q-55 37 -107 37q-43 0 -72.5 -15.5t-45 -35t-22.5 -59t-8 -65.5t-1 -77q0 -68 2 -100l6 -359l-15 -16h-110q-161 0 -305 -4l-15 14q12 377 13 565 q0 243 -23 474z" />
<glyph unicode="s" horiz-adv-x="1024" d="M63 72l15 266l20 10q49 -41 78 -57q106 -68 230 -68q35 0 59 7.5t35.5 17.5t18.5 22.5t8 18.5t1 12q0 25 -17 43t-35.5 27.5t-53.5 21.5l-86 35q-139 63 -189 121q-71 85 -71 210q0 91 39 164.5t98 116.5q121 86 346 86q143 0 330 -53l12 -12q-14 -123 -22 -252l-21 -6 q-125 88 -254 88q-49 0 -76.5 -20.5t-30.5 -33t-3 -22.5q0 -41 86 -78l143 -59q74 -31 117 -66q121 -98 121 -254q0 -172 -132.5 -277.5t-371.5 -105.5q-186 0 -328 54q-10 4 -29.5 11t-23.5 9z" />
<glyph unicode="t" horiz-adv-x="768" d="M0 834l12 249l15 15h116v268l11 14q188 47 381 105l18 -12l-6 -383q102 0 194 8l17 -15l-23 -245l-16 -17q-16 0 -48 1t-46 1l-78 -2l-6 -358q0 -121 18 -156q27 -49 96 -49q45 0 105 23l16 -9l-20 -252l-15 -14q-147 -31 -254 -31q-147 0 -225 46.5t-108 144.5 q-16 55 -17 201q0 47 1 139t1 139l4 180l-131 -4z" />
<glyph unicode="u" horiz-adv-x="1280" d="M102 1079l15 13l391 18l16 -18q0 -37 1 -110t1 -110q0 -23 -2 -165t-2 -168q0 -66 2 -97.5t12.5 -74.5t35 -61.5t65.5 -18.5q43 0 121 41l-13 749l13 15q199 4 397 18l16 -20q-4 -434 -4 -654q0 -225 9 -422l-15 -14q-207 0 -385 -6l-14 14l2 94q-53 -41 -78 -53 q-125 -76 -256 -76q-156 0 -248 115q-51 62 -62 148q-9 72 -9 219v55v88v82q0 220 -9 399z" />
<glyph unicode="v" horiz-adv-x="1110" d="M0 1077l12 15q234 2 424 18l17 -12l49 -246q18 -80 55 -234.5t43 -181.5l62 258q49 199 83 391l15 13l342 6l8 -14q-268 -797 -354 -1076l-21 -14h-65q-134 0 -299 -6l-17 12q-43 131 -53 170q-66 215 -123 385q-131 393 -178 516z" />
<glyph unicode="w" horiz-adv-x="1705" d="M6 1075l10 17q197 2 394 18l14 -12q53 -305 135 -658q74 336 129 645l12 13q52 -1 109 -1q141 0 311 7l17 -12q35 -217 116 -656q76 326 127 649l13 13q37 -1 79 -1q104 0 238 7l10 -14q-154 -535 -301 -1076l-12 -14h-82q-163 0 -315 -6l-17 14q-20 115 -61 348 q-10 49 -29.5 149.5t-30.5 151.5l-143 -645l-14 -12h-73q-150 0 -323 -6l-18 12q-29 102 -84 318q-37 141 -80 282q-33 113 -131 469z" />
<glyph unicode="x" horiz-adv-x="1110" d="M-16 10q248 367 358 537q-119 195 -143 229q-109 158 -201 299l12 15q72 2 211 6l221 12l19 -8q78 -160 129 -254q63 123 115 239l18 13h72q144 0 290 6l11 -17q-49 -70 -164 -239q-147 -221 -174 -264q215 -354 360 -570l-6 -14q-156 0 -233 -2q-70 -2 -209 -10l-21 10 q-43 94 -139 281q-94 -186 -131 -267l-19 -12q-25 0 -69.5 1t-69.5 1q-98 0 -227 -8z" />
<glyph unicode="y" horiz-adv-x="1110" d="M-20 1077l8 15q221 2 438 18l16 -12q78 -340 154 -609q80 274 162 596l12 13l328 6l12 -14l-246 -697l-104 -311q-104 -330 -164 -582l-16 -12q-183 0 -369 -6l-10 16q104 246 180 451q-115 352 -170 506q-16 47 -51 142t-51 142q-72 201 -129 338z" />
<glyph unicode="z" horiz-adv-x="1024" d="M27 12q86 156 149 287q14 29 117.5 252t126.5 268h-340l-10 10l22 258l10 11h167q338 0 708 6l10 -19q-188 -352 -397 -817l381 13l14 -11l-27 -262l-12 -8q-55 0 -169.5 1t-172.5 1q-213 0 -569 -8z" />
<glyph unicode="{" horiz-adv-x="724" d="M33 489v142q55 16 95 60t54 102q10 37 13 190v180q0 82 2 123t17 93.5t46 86.5q61 70 160.5 86.5t339.5 16.5v-142q-66 -18 -94.5 -29.5t-61.5 -43t-49 -82.5q-16 -49 -16 -189v-77q-2 -154 -6.5 -205t-22.5 -94q-45 -106 -188 -146q41 -12 62.5 -21.5t63 -43t62.5 -82.5 q18 -43 22.5 -94.5t6.5 -204.5v-78q0 -139 16 -189q16 -51 49 -82.5t61.5 -43t94.5 -29.5v-142q-240 0 -339 16.5t-161 86.5q-31 35 -46 87t-17 93t-2 123v180q-2 154 -13 191q-14 57 -54 101t-95 60z" />
<glyph unicode="|" horiz-adv-x="468" d="M104 -512v2048h261v-2048h-261z" />
<glyph unicode="}" horiz-adv-x="724" d="M-35 -307q66 18 94.5 29.5t61.5 43t49 82.5q16 49 16 189v78q2 154 6.5 205t22.5 94q45 106 188 145q-41 12 -62.5 21.5t-63 43t-62.5 83.5q-18 43 -22.5 94t-6.5 205v77q0 139 -16 189q-16 51 -49 82.5t-61.5 43t-94.5 29.5v142q240 0 339 -16.5t161 -86.5 q31 -35 46 -87t17 -93t2 -123v-180q2 -154 13 -190q14 -57 54 -101.5t95 -60.5v-142q-55 -16 -95 -60t-54 -101q-10 -37 -13 -191v-180q0 -82 -2 -123t-17 -93t-46 -87q-61 -70 -160.5 -86.5t-339.5 -16.5v142z" />
<glyph unicode="~" horiz-adv-x="1492" d="M211 614q27 37 47.5 60.5t61 59.5t94 55.5t116.5 19.5q76 0 211 -64l74 -32q106 -47 154 -47q98 0 207 127l106 -215q-59 -68 -145 -119t-174 -51q-78 0 -213 63l-64 31q-96 45 -149 45q-61 0 -98.5 -27.5t-114.5 -116.5z" />
<glyph unicode="&#xa1;" horiz-adv-x="641" d="M51 4q47 492 53 1018l13 18l301 7l10 -15q29 -657 59 -1001l-12 -17l-407 -20zM72 1219l2 340l10 8l383 4l10 -15v-327l-14 -12q-25 0 -78 1t-80 1h-41l-184 -7z" />
<glyph unicode="&#xa2;" horiz-adv-x="1024" d="M51 541q0 145 53.5 263t139.5 187q147 119 381 119q25 0 90 -4q12 55 26 137l17 12q76 0 147 2l10 -14l-45 -158q43 -10 115 -36l10 -19q-24 -141 -34 -274l-19 -13q-70 31 -139 48q-102 -408 -129 -523q8 0 25.5 -1t25.5 -1q92 0 221 72l17 -8q-14 -141 -19 -279 l-12 -18q-127 -51 -330 -53q-12 -49 -33 -150l-14 -14q-90 0 -166 -4l-12 14q27 84 51 168q-135 35 -217 110q-74 68 -117 186t-43 251zM444 532q0 -51 13.5 -93t25.5 -60t37 -49q76 311 119 467q-33 -8 -55.5 -17.5t-60.5 -36t-58.5 -81t-20.5 -130.5z" />
<glyph unicode="&#xa3;" horiz-adv-x="1067" d="M51 602l12 207l17 10l100 -2q0 16 -2 46t-3 54.5t-1 47.5q0 248 154 358q129 94 366 94q158 0 334 -43l10 -14l-20 -264l-19 -13q-113 47 -206 47q-111 0 -164 -55q-43 -43 -47 -178l-2 -78l325 8l13 -12l-15 -211l-12 -10h-311l-23 -334l465 8l10 -8l-14 -240l-12 -20 h-897l-15 23q43 127 62 243q23 160 30 330l-125 -6z" />
<glyph unicode="&#xa4;" horiz-adv-x="1366" d="M12 219l168 166q-88 147 -88 317q0 68 13.5 125.5t27.5 87t45 86.5l-162 166l193 195l164 -164q59 31 90 45t91 28.5t130 14.5q72 0 131 -13t89 -27.5t89 -47.5l164 164l197 -195l-166 -163q31 -57 45 -89t27.5 -90.5t13.5 -128.5q0 -74 -13.5 -133t-28.5 -91t-46 -89 l168 -168l-199 -195l-164 168q-59 -31 -90 -44t-91 -27.5t-128 -14.5q-70 0 -130 14.5t-92 30t-87 46.5l-166 -168zM348 692q0 -150 101.5 -243t234.5 -93q141 0 237.5 97.5t96.5 240.5q0 152 -101.5 245t-234.5 93q-129 0 -231.5 -91t-102.5 -249z" />
<glyph unicode="&#xa5;" horiz-adv-x="1323" d="M0 1366l8 14q27 0 77 1t91 2t78 3q102 2 207 13l14 -10q57 -131 240 -465q100 209 203 454l10 8q229 0 387 7l8 -11q-98 -164 -270 -477h61q35 0 70 2l12 -12q-4 -82 -7 -140.5t-3 -82.5l-12 -13q-51 2 -97 3h-155l-33 -62v-94h192q41 0 103 4l12 -12q-4 -84 -7 -143.5 t-3 -80.5l-12 -12q-6 0 -133.5 1t-149.5 1q0 -41 1 -100.5t2 -98t1 -53.5l-14 -14q-219 2 -422 -4l-10 10q8 102 10 260q-90 -2 -283 -2l-12 14q10 111 10 220l14 12q18 0 134 -1t139 -1v88l-39 68h-246l-12 14q8 80 10 217l14 14q59 -2 88 -2l-36 60q-88 154 -240 401z" />
<glyph unicode="&#xa6;" horiz-adv-x="468" d="M104 389h261v-780h-261v780zM104 631v780h261v-780h-261z" />
<glyph unicode="&#xa7;" horiz-adv-x="1150" d="M57 571q0 90 34 164t65.5 106.5t79.5 69.5q-31 29 -47.5 48.5t-33 60.5t-16.5 94q0 166 131 270q125 96 365 97q147 0 358 -62l15 -16q-14 -125 -23 -266l-18 -11q-158 90 -273 91q-61 0 -98 -24t-37 -65q0 -35 26.5 -53t112.5 -51l103 -45q49 -23 77.5 -37t77 -47 t75 -65.5t48 -85t21.5 -111.5q0 -80 -34 -153.5t-64.5 -106.5t-79.5 -78q37 -37 53 -56.5t31.5 -60.5t15.5 -94q0 -109 -48 -189.5t-128 -123.5t-169 -63.5t-185 -20.5q-141 0 -345 57l-12 16q16 166 23 275l16 10q68 -37 80 -41q90 -39 211 -39q66 0 108.5 22.5t42.5 63.5 q0 59 -106 94q-27 10 -76 31l-92 39q-49 25 -76.5 39t-74 48t-71 66.5t-44 86t-19.5 116.5zM360 666q0 -31 19.5 -57.5t40 -40t57.5 -31.5q43 -23 127 -58l121 -57q63 68 63 113q0 57 -65 100q-20 12 -217 98l-86 43q-59 -68 -60 -110z" />
<glyph unicode="&#xa8;" horiz-adv-x="598" d="M-113 1528l9 8q175 8 333 20l9 -8v-321l-13 -10l-319 -23l-10 10zM369 1528l6 10l330 27l8 -6v-332l-8 -8l-316 -25l-12 8z" />
<glyph unicode="&#xa9;" horiz-adv-x="1705" d="M125 723q0 307 214 518t515 211q315 0 523 -216t206 -517q-2 -309 -215 -517t-512 -208q-301 0 -516 208t-215 521zM190 719q0 -268 190.5 -464t473.5 -196q293 0 492 211q90 98 131 221.5t41 227.5q0 276 -188.5 471.5t-473.5 195.5q-276 0 -471 -192.5t-195 -474.5z M358 725q0 217 140.5 364.5t369.5 147.5q104 0 192.5 -34t125.5 -63.5t86 -78.5l-178 -170q-37 31 -55.5 46t-67.5 34.5t-101 19.5q-119 0 -188.5 -74.5t-69.5 -189.5q0 -119 68 -192.5t197 -73.5q119 0 217 92l178 -166q-166 -172 -400 -172q-248 0 -381 148.5t-133 361.5z " />
<glyph unicode="&#xaa;" horiz-adv-x="811" d="M45 944q0 63 28.5 111.5t66.5 75t101.5 46t105.5 25.5t106 15v14q-2 31 -21.5 43t-64.5 12q-102 0 -238 -57l-10 4q4 45 6 88l2 80l8 10q135 47 301 47q160 0 230 -69q43 -43 51 -94.5t6 -170.5l-2 -84q0 -178 10 -303l-8 -10q-160 0 -252 -4l-10 8v53q-113 -72 -197 -71 q-88 0 -153.5 63.5t-65.5 167.5zM299 977q0 -31 19.5 -51.5t56.5 -20.5q41 0 82 27v139q-158 -10 -158 -94z" />
<glyph unicode="&#xab;" horiz-adv-x="1024" d="M12 578v22q162 281 209 371l15 14q127 -6 292 -4l11 -18q-145 -250 -201 -367q14 -31 98 -192.5t96 -186.5l-8 -24h-276l-17 10q-14 27 -69.5 121t-102.5 174zM451 602q145 246 206 365l17 14h305l12 -18q-139 -233 -211 -377l191 -373l-8 -25q-98 4 -148 5 q-43 0 -137 -5l-14 9q-82 156 -211 383z" />
<glyph unicode="&#xac;" horiz-adv-x="1366" d="M0 465v260h1104h260v-725h-260v465h-1104z" />
<glyph unicode="&#xad;" horiz-adv-x="811" d="M70 436l12 287l12 14h639l8 -10l-14 -287l-12 -14h-637z" />
<glyph unicode="&#xae;" horiz-adv-x="1705" d="M123 723q0 311 215 520t514 209q313 0 523 -215t208 -518t-213 -514t-518 -211q-295 0 -512 207t-217 522zM188 723q0 -279 195 -471.5t469 -192.5q281 0 472.5 193t193.5 469q2 274 -189.5 469.5t-472.5 195.5t-474.5 -194.5t-193.5 -468.5zM512 262v938h334 q152 0 221 -22q82 -25 124 -91.5t42 -138.5q0 -66 -32 -114t-60.5 -65t-71.5 -38q47 -31 68.5 -62.5t36.5 -113.5q33 -209 79 -293h-258q-29 59 -51 203q-18 133 -41.5 160.5t-126.5 29.5h-39v-393h-225zM737 834h99q100 0 131 18q41 23 41 82q0 61 -50 84q-27 10 -153 10 h-68v-194z" />
<glyph unicode="&#xaf;" horiz-adv-x="598" d="M-63 1266q10 90 14 202l12 13q143 -2 428 -2q121 0 260 4l11 -13q-4 -39 -15 -202l-12 -15q-109 2 -461 2q-139 0 -227 -2z" />
<glyph unicode="&#xb0;" horiz-adv-x="724" d="M10 1178q0 145 101.5 248.5t250.5 103.5q152 0 253.5 -106.5t101.5 -245.5q0 -145 -103.5 -251t-253.5 -104q-139 2 -244.5 102.5t-105.5 252.5zM250 1178q0 -53 33.5 -84t76.5 -31q57 0 87 36t30 75q0 47 -33.5 82.5t-81.5 35.5q-49 0 -80.5 -33.5t-31.5 -80.5z" />
<glyph unicode="&#xb1;" horiz-adv-x="1366" d="M86 0v260h1194v-260h-1194zM86 760v260h469v426h260v-426h465v-260h-465v-428h-260v428h-469z" />
<glyph unicode="&#xb2;" horiz-adv-x="811" d="M29 498q180 221 319 422q57 82 58 141q0 10 -1.5 19.5t-8.5 32t-21.5 38.5t-44 29.5t-70.5 13.5q-86 0 -190 -78l-13 10q4 57 4 207l9 8q156 66 282 66q160 0 249 -85t89 -214t-110 -268l-115 -144q94 2 250 9l8 -9q-8 -117 -10 -198l-11 -15q-78 2 -143 2q-37 0 -261 -3 t-265 -3z" />
<glyph unicode="&#xb3;" horiz-adv-x="811" d="M72 1184q6 76 8 188l10 12q109 -2 246 -2q160 1 346 7l8 -15q-82 -164 -158 -323q106 -16 151.5 -88t45.5 -160q0 -25 -3 -52.5t-24.5 -84t-58.5 -98.5t-115.5 -74.5t-187.5 -32.5q-131 0 -254 45l-6 10q4 98 4 199l12 6q98 -70 183 -70q66 0 109.5 36t43.5 97 q0 59 -40 93t-93 34q-33 0 -70 -18l-8 8q55 125 115 281q-168 -4 -256 -8z" />
<glyph unicode="&#xb4;" horiz-adv-x="598" d="M41 1262q59 117 123 356l10 10l373 8l8 -14l-229 -362l-13 -9l-264 -4z" />
<glyph unicode="&#xb6;" horiz-adv-x="1366" d="M166 1006q0 201 127 321q55 53 121.5 81t106.5 32t110 6h512v-160h-74v-1628h-172v1628h-242v-1628h-172v940q-111 31 -174 80q-143 113 -143 328z" />
<glyph unicode="&#xb7;" horiz-adv-x="555" d="M70 745l8 13l395 4l8 -8v-334l-8 -8l-387 -9l-8 13z" />
<glyph unicode="&#xb8;" horiz-adv-x="598" d="M82 -428l162 334l16 10h244l12 -12l-108 -334l-15 -10h-299z" />
<glyph unicode="&#xb9;" horiz-adv-x="811" d="M160 1194q8 123 12 160l8 8q213 29 367 49l10 -8q0 -35 -2 -242t-2 -248q0 -220 8 -421l-6 -9q-139 0 -272 -4l-7 8q10 412 9 707q-88 -4 -117 -8z" />
<glyph unicode="&#xba;" horiz-adv-x="811" d="M39 1079q0 211 111 303q94 76 258 76q162 0 258 -78q106 -90 106 -295q0 -199 -98 -286q-94 -88 -264 -88q-193 0 -282 93t-89 275zM315 1077q0 -201 88 -200q51 0 73 53t20 166q-2 100 -21.5 149t-68.5 49q-37 0 -58.5 -32.5t-27 -74.5t-5.5 -110z" />
<glyph unicode="&#xbb;" horiz-adv-x="1024" d="M33 211q47 80 127 219q53 92 82 158q-29 61 -104 205.5t-85 167.5l8 24q98 -4 148 -4q45 0 135 4l16 -8q43 -82 209 -383l2 -23q-140 -241 -206 -364l-15 -14h-305zM483 211q113 180 203 369q-141 260 -194 376l8 25h276l17 -10l219 -375v-23q-176 -304 -209 -370 l-15 -15q-129 6 -290 5z" />
<glyph unicode="&#xbc;" horiz-adv-x="1878" d="M158 1194q8 117 12 160l8 8q82 10 367 49l10 -8q0 -35 -2 -242t-2 -248q0 -224 8 -421l-6 -9q-139 0 -272 -6l-7 10q10 412 9 705q-12 0 -117 -6zM530 18q106 248 220 504q35 80 105.5 243t105.5 243q90 209 149 362l12 14q131 0 209 2l6 -20q-342 -734 -573 -1346 l-14 -14q-178 -6 -207 -6zM1114 176v143l31 62q143 293 239 516l13 10q82 2 169 3t142 1l12 -8q-6 -193 -4 -553q18 0 47 1t49 3l9 -8q-4 -57 -9 -170l-10 -10h-86q0 -29 2 -80t4 -80l-10 -8q-129 0 -250 -6l-8 8q0 18 8 166h-342zM1331 350h137q6 256 9 373 q-35 -84 -84 -219z" />
<glyph unicode="&#xbd;" horiz-adv-x="1878" d="M158 1194q8 117 12 160l8 8q82 10 367 49l10 -8q0 -35 -2 -242t-2 -248q0 -224 8 -421l-6 -9q-139 0 -272 -6l-7 10q10 412 9 707q-39 -2 -71 -5t-46 -3zM461 18q106 248 219 504q72 162 211 486q92 209 149 364l15 12q129 0 207 2l8 -20q-353 -756 -576 -1346l-14 -14 q-178 -6 -207 -6zM1094 14q172 209 321 422q57 82 58 142q0 10 -1.5 19t-8.5 31.5t-21.5 39t-44 30t-70.5 13.5q-86 0 -190 -78l-13 10q0 141 4 207l7 8q158 66 284 66q160 0 249 -85t89 -214t-110 -269q-2 -4 -31 -38.5t-52.5 -64.5t-31.5 -40q94 2 250 8l8 -8 q-8 -117 -10 -199l-11 -14q-78 2 -145 2q-35 0 -259 -3t-267 -3z" />
<glyph unicode="&#xbe;" horiz-adv-x="1878" d="M72 1184q6 76 8 188l10 12q109 -2 246 -2q160 1 346 7l8 -15q-82 -164 -158 -323q106 -16 151.5 -88t45.5 -160q0 -25 -3 -52.5t-24.5 -84t-58.5 -98.5t-115.5 -74.5t-187.5 -32.5q-131 0 -254 45l-6 10q4 98 4 199l12 6q98 -70 183 -70q66 0 109.5 36t43.5 97 q0 59 -40 93t-93 34q-33 0 -70 -18l-8 8q55 125 115 281q-168 -4 -256 -8zM543 18q25 66 219 504q37 80 106.5 243t104.5 243q100 233 149 362l13 14h208l7 -18q-357 -762 -574 -1346l-14 -14q-178 -6 -207 -6zM1116 176v143l31 62q143 293 239 516l13 10q158 0 311 4 l12 -10q-6 -188 -4 -551q16 0 45 1t49 3l9 -8q-4 -57 -9 -170l-10 -10h-86q0 -29 2 -80t4 -80l-10 -8q-129 0 -250 -6l-8 8q0 18 8 166h-340zM1333 350h137q6 256 9 373q-43 -106 -84 -219z" />
<glyph unicode="&#xbf;" horiz-adv-x="937" d="M10 389q0 174 131 359q4 6 82 104l45 59q27 39 34 59.5t11 61.5l13 17l358 8l10 -15q-4 -70 -20.5 -104.5t-71.5 -99.5l-51 -62q-39 -53 -60.5 -86t-44 -93t-22.5 -120q0 -96 60.5 -148.5t144.5 -52.5q98 0 243 91l17 -17l-8 -284l-15 -19q-72 -25 -110.5 -37t-106 -22.5 t-143.5 -10.5q-285 0 -408 152q-88 106 -88 260zM307 1214l4 340l8 9l383 4l11 -15v-325l-15 -15q-53 2 -157 2h-39q-93 0 -185 -6z" />
<glyph unicode="&#xc0;" horiz-adv-x="1409" d="M0 14l446 1422l13 10l520 6l14 -10l416 -1426l-14 -16h-211q-31 0 -66 -1t-78 -3t-67 -2l-15 10l-77 348h-400l-80 -344l-14 -8h-377zM373 1876l8 14h383l12 -6q35 -156 92 -325l-10 -13h-240l-14 10zM557 647h254l-51 217l-68 310q-29 -123 -82 -320z" />
<glyph unicode="&#xc1;" horiz-adv-x="1409" d="M0 14l446 1422l13 10l520 6l14 -10l416 -1426l-14 -16h-211q-31 0 -66 -1t-78 -3t-67 -2l-15 10l-77 348h-400l-80 -344l-14 -8h-377zM549 1556q84 203 110 324l11 8h379l6 -10l-248 -326l-12 -6h-238zM557 647h254l-51 217l-68 310q-29 -123 -82 -320z" />
<glyph unicode="&#xc2;" horiz-adv-x="1409" d="M0 14l446 1422l13 10l520 6l14 -10l416 -1426l-14 -16h-211q-31 0 -66 -1t-78 -3t-67 -2l-15 10l-77 348h-400l-80 -344l-14 -8h-377zM299 1561q115 184 174 317l12 12h428l13 -10q84 -174 170 -311l-9 -17l-321 -4l-12 13l-64 147l-84 -147l-12 -13h-285zM557 647h254 l-51 217l-68 310q-29 -123 -82 -320z" />
<glyph unicode="&#xc3;" horiz-adv-x="1409" d="M0 14l446 1422l13 10l520 6l14 -10l416 -1426l-14 -16h-211q-31 0 -66 -1t-78 -3t-67 -2l-15 10l-77 348h-400l-80 -344l-14 -8h-377zM332 1567v248l6 16q88 70 188 70q47 0 97 -15l90 -33q104 -31 143 -30q72 0 193 96l8 -6l6 -271l-8 -16q-102 -84 -203 -84 q-41 0 -123 25l-65 24q-84 31 -137.5 31t-186.5 -59zM557 647h254l-51 217l-68 310q-29 -123 -82 -320z" />
<glyph unicode="&#xc4;" horiz-adv-x="1409" d="M0 14l446 1422l13 10l520 6l14 -10l416 -1426l-14 -16h-211q-31 0 -66 -1t-78 -3t-67 -2l-15 10l-77 348h-400l-80 -344l-14 -8h-377zM270 1556q4 111 4 148q0 27 -1 76t-1 73l9 15l331 4l9 -12l-5 -295l-10 -13l-327 -6zM557 647h254l-51 217l-68 310q-29 -123 -82 -320 zM788 1548q2 47 3 140q0 90 -3 163l9 13l321 10l10 -14l-4 -299l-10 -15l-315 -10z" />
<glyph unicode="&#xc5;" horiz-adv-x="1409" d="M0 14l446 1422l13 10l520 6l14 -10l416 -1426l-14 -16h-211q-31 0 -66 -1t-78 -3t-67 -2l-15 10l-77 348h-400l-80 -344l-14 -8h-377zM420 1751q0 113 73.5 184.5t198.5 71.5q123 0 196 -68.5t77 -177.5q4 -113 -69 -182.5t-204 -69.5q-129 0 -200.5 68t-71.5 174z M557 647h254l-51 217l-68 310q-29 -123 -82 -320zM616 1757q0 -51 20.5 -86t55.5 -35t56.5 36t19.5 95q-4 113 -76 113q-76 0 -76 -123z" />
<glyph unicode="&#xc6;" horiz-adv-x="1878" d="M0 12q41 102 124 308t126 309q244 606 315 809l13 8h1200l14 -4l-16 -285l-11 -12h-456l-4 -258l421 4l13 -12l-17 -271l-14 -14h-405v-279q281 2 495 13l12 -11l-18 -305l-14 -12q-442 2 -881 -6l-14 12l8 371h-363l-116 -367l-17 -10q-197 2 -387 -6zM637 678h258 l8 469h-94z" />
<glyph unicode="&#xc7;" horiz-adv-x="1236" d="M66 702q0 186 49 322q45 129 122.5 221t174 140.5t190.5 70t195 21.5q190 0 370 -78l9 -13q-14 -168 -19 -337l-14 -11q-10 8 -27 25q-96 78 -235 78q-121 0 -205 -64q-150 -109 -150 -358q0 -197 101.5 -305.5t273.5 -108.5q141 0 270 92l17 -8q-8 -117 -14 -346l-9 -14 q-188 -59 -376.5 -59.5t-331 59t-226.5 163t-124.5 232.5t-40.5 278zM508 -426q92 182 162 332l16 12q98 -2 244 -2l12 -12q-53 -158 -108 -332l-13 -12q-154 2 -301 0z" />
<glyph unicode="&#xc8;" horiz-adv-x="1150" d="M104 1434l13 12h921l11 -8l-15 -283l-12 -10h-473v-260l448 8l13 -14l-17 -269l-14 -12h-426v-283q205 0 520 13l12 -13l-20 -303l-18 -12q-168 0 -276.5 1t-113.5 1q-147 0 -536 -8l-10 14q8 313 8 641q0 492 -15 785zM244 1876l8 14h383l12 -6q35 -156 92 -325l-10 -13 h-240l-14 10z" />
<glyph unicode="&#xc9;" horiz-adv-x="1150" d="M104 1434l13 12h921l11 -8l-15 -283l-12 -10h-473v-260l448 8l13 -14l-17 -269l-14 -12h-426v-283q205 0 520 13l12 -13l-20 -303l-18 -12q-168 0 -276.5 1t-113.5 1q-147 0 -536 -8l-10 14q8 313 8 641q0 492 -15 785zM420 1556q84 203 110 324l11 8h379l6 -10 l-248 -326l-12 -6h-238z" />
<glyph unicode="&#xca;" horiz-adv-x="1150" d="M104 1434l13 12h921l11 -8l-15 -283l-12 -10h-473v-260l448 8l13 -14l-17 -269l-14 -12h-426v-283q205 0 520 13l12 -13l-20 -303l-18 -12q-168 0 -276.5 1t-113.5 1q-147 0 -536 -8l-10 14q8 313 8 641q0 492 -15 785zM170 1561q115 184 174 317l12 12h428l13 -10 q84 -174 170 -311l-9 -17l-321 -4l-12 13l-64 147l-84 -147l-12 -13h-285z" />
<glyph unicode="&#xcb;" horiz-adv-x="1150" d="M104 1434l13 12h921l11 -8l-15 -283l-12 -10h-473v-260l448 8l13 -14l-17 -269l-14 -12h-426v-283q205 0 520 13l12 -13l-20 -303l-18 -12q-168 0 -276.5 1t-113.5 1q-147 0 -536 -8l-10 14q8 313 8 641q0 492 -15 785zM154 1556q4 111 4 148q0 27 -1 76t-1 73l8 15 l332 4l8 -12l-4 -295l-11 -13l-327 -6zM672 1548q2 47 2 140q0 90 -2 163l8 13l321 10l11 -14l-4 -299l-11 -15l-315 -10z" />
<glyph unicode="&#xcc;" horiz-adv-x="681" d="M10 1876l8 14h383l13 -6q35 -156 92 -325l-10 -13h-240l-14 10zM109 1436l10 10q236 -2 444 6l8 -10q-10 -342 -10 -563q0 -367 14 -869l-8 -10q-233 2 -446 -6l-8 10q0 184 4 549q4 233 4 350q0 203 -12 533z" />
<glyph unicode="&#xcd;" horiz-adv-x="681" d="M109 1436l10 10q236 -2 444 6l8 -10q-10 -342 -10 -563q0 -367 14 -869l-8 -10q-233 2 -446 -6l-8 10q0 184 4 549q4 233 4 350q0 203 -12 533zM186 1556q84 203 111 324l10 8h379l6 -10l-248 -326l-12 -6h-237z" />
<glyph unicode="&#xce;" horiz-adv-x="681" d="M-63 1561q115 184 174 317l12 12h428l12 -10q84 -174 170 -311l-8 -17l-322 -4l-12 13l-63 147l-84 -147l-13 -13h-284zM109 1436l10 10q236 -2 444 6l8 -10q-10 -342 -10 -563q0 -367 14 -869l-8 -10q-233 2 -446 -6l-8 10q0 184 4 549q4 233 4 350q0 203 -12 533z" />
<glyph unicode="&#xcf;" horiz-adv-x="681" d="M-80 1556q4 111 4 148q0 27 -1 76t-1 73l8 15l332 4l8 -12l-4 -295l-10 -13l-328 -6zM109 1436l10 10q236 -2 444 6l8 -10q-10 -342 -10 -563q0 -367 14 -869l-8 -10q-233 2 -446 -6l-8 10q0 184 4 549q4 233 4 350q0 203 -12 533zM438 1548q2 47 2 140q0 90 -2 163l8 13 l322 10l10 -14l-4 -299l-10 -15l-315 -10z" />
<glyph unicode="&#xd0;" horiz-adv-x="1449" d="M-2 662v174l12 12q61 -2 109 -2q-6 465 -13 590l13 10h467h102q106 -2 172 -7t175.5 -45t181.5 -114q168 -168 167 -508q0 -362 -174 -563q-61 -72 -138 -117t-165 -63.5t-140 -22.5t-132 -6l-133 -2q-62 0 -373 -4l-12 16q0 18 1 55t1 56q2 266 0 536q-18 0 -48 -2 t-61 -4zM553 854q100 2 221 8l10 -12q-2 -43 -4 -91t-4 -83l-10 -12q-107 2 -211 0l4 -342q133 -4 191 20q176 74 176 406q0 127 -23.5 208.5t-69 117.5t-86 47.5t-98.5 11.5q-10 0 -22.5 -1.5t-34 -2.5t-39.5 -1v-274z" />
<glyph unicode="&#xd1;" horiz-adv-x="1492" d="M102 1434l13 12h182l178 6l12 -6q109 -160 230 -322q141 -193 317 -442q2 395 -10 754l8 10l334 6l12 -8q0 -63 -1 -449.5t-1 -459.5q0 -186 6 -523l-12 -12l-287 -6l-16 8q-92 131 -231 322l-381 516l28 -828l-10 -12q-145 2 -344 -6l-12 10q6 211 6 348q0 631 -21 1082 zM375 1567v248l6 16q88 70 188 70q45 0 97 -15l90 -33q104 -31 143 -30q72 0 193 96l8 -6l6 -271l-8 -16q-102 -84 -203 -84q-41 0 -123 25l-65 24q-84 31 -137.5 31t-186.5 -59z" />
<glyph unicode="&#xd2;" horiz-adv-x="1492" d="M66 702q0 305 106 484q174 293 573 293q305 0 474 -158q198 -191 208 -580q6 -303 -98 -479q-172 -291 -590 -291q-326 0 -499.5 189.5t-173.5 541.5zM416 1876l8 14h383l12 -6q35 -156 92 -325l-10 -13h-239l-15 10zM516 713q0 -428 229 -428q238 0 232 444 q-4 440 -223 440q-133 0 -185.5 -119.5t-52.5 -336.5z" />
<glyph unicode="&#xd3;" horiz-adv-x="1492" d="M66 702q0 305 106 484q174 293 573 293q305 0 474 -158q198 -191 208 -580q6 -303 -98 -479q-172 -291 -590 -291q-326 0 -499.5 189.5t-173.5 541.5zM516 713q0 -428 229 -428q238 0 232 444q-4 440 -223 440q-133 0 -185.5 -119.5t-52.5 -336.5zM592 1556 q84 203 110 324l11 8h379l6 -10l-248 -326l-12 -6h-238z" />
<glyph unicode="&#xd4;" horiz-adv-x="1492" d="M66 702q0 305 106 484q174 293 573 293q305 0 474 -158q198 -191 208 -580q6 -303 -98 -479q-172 -291 -590 -291q-326 0 -499.5 189.5t-173.5 541.5zM342 1561q115 184 174 317l12 12h428l13 -10q84 -174 170 -311l-9 -17l-321 -4l-12 13l-64 147l-84 -147l-12 -13h-285 zM516 713q0 -428 229 -428q238 0 232 444q-4 440 -223 440q-133 0 -185.5 -119.5t-52.5 -336.5z" />
<glyph unicode="&#xd5;" horiz-adv-x="1492" d="M66 702q0 305 106 484q174 293 573 293q305 0 474 -158q198 -191 208 -580q6 -303 -98 -479q-172 -291 -590 -291q-326 0 -499.5 189.5t-173.5 541.5zM375 1567v248l6 16q88 70 188 70q45 0 97 -15l90 -33q104 -31 143 -30q72 0 193 96l8 -6l6 -271l-8 -16 q-102 -84 -203 -84q-41 0 -123 25l-65 24q-84 31 -137.5 31t-186.5 -59zM516 713q0 -428 229 -428q238 0 232 444q-4 440 -223 440q-133 0 -185.5 -119.5t-52.5 -336.5z" />
<glyph unicode="&#xd6;" horiz-adv-x="1492" d="M66 702q0 305 106 484q174 293 573 293q305 0 474 -158q198 -191 208 -580q6 -303 -98 -479q-172 -291 -590 -291q-326 0 -499.5 189.5t-173.5 541.5zM326 1556q4 111 4 148q0 27 -1 76t-1 73l8 15l332 4l8 -12l-4 -295l-10 -13l-328 -6zM516 713q0 -428 229 -428 q238 0 232 444q-4 440 -223 440q-133 0 -185.5 -119.5t-52.5 -336.5zM844 1548q2 47 2 140q0 90 -2 163l8 13l322 10l10 -14l-4 -299l-11 -15l-315 -10z" />
<glyph unicode="&#xd7;" horiz-adv-x="1366" d="M125 225l373 371l-373 375l184 180l373 -371l375 371l182 -180l-371 -375l371 -371l-182 -186l-375 373l-373 -373z" />
<glyph unicode="&#xd8;" horiz-adv-x="1492" d="M-12 106q57 53 172 168q-31 59 -46.5 96.5t-31.5 125.5t-16 200q0 131 26 273q51 250 218 379t433 129q119 0 216.5 -26t134 -47.5t90.5 -57.5q72 70 143 153l19 2l135 -123l2 -20l-166 -166q35 -68 52 -110t37.5 -136t20.5 -205q0 -270 -79 -440q-76 -162 -230.5 -247 t-365.5 -85q-119 0 -219.5 28t-142.5 52.5t-101 67.5l-142 -158l-22 -4l-135 129zM489 733q1 -34 5 -112l442 454q-61 117 -184 117q-145 0 -215 -154q-47 -125 -48 -305zM541 399q27 -45 44 -67.5t62 -48t105 -25.5q82 0 138 51t77.5 133t29 139.5t7.5 112.5q-1 23 -11 166 z" />
<glyph unicode="&#xd9;" horiz-adv-x="1409" d="M90 1436l8 10q242 0 441 6l10 -10q-12 -541 -12 -813q0 -166 22 -230q43 -127 178 -127q88 0 142 54q31 31 45 82t16 95t2 138q0 391 -14 797l10 8l375 6l12 -8l-10 -844l-2 -78q-4 -63 -6 -95t-13.5 -92.5t-30 -98t-52 -84t-83.5 -78.5q-150 -104 -419 -105 q-365 0 -506 178q-45 55 -68.5 133t-29 128.5t-7.5 140.5v63q0 395 -8 824zM373 1876l8 14h383l12 -6q35 -156 92 -325l-10 -13h-240l-14 10z" />
<glyph unicode="&#xda;" horiz-adv-x="1409" d="M90 1436l8 10q242 0 441 6l10 -10q-12 -541 -12 -813q0 -166 22 -230q43 -127 178 -127q88 0 142 54q31 31 45 82t16 95t2 138q0 391 -14 797l10 8l375 6l12 -8l-10 -844l-2 -78q-4 -63 -6 -95t-13.5 -92.5t-30 -98t-52 -84t-83.5 -78.5q-150 -104 -419 -105 q-365 0 -506 178q-45 55 -68.5 133t-29 128.5t-7.5 140.5v63q0 395 -8 824zM549 1556q84 203 110 324l11 8h379l6 -10l-248 -326l-12 -6h-238z" />
<glyph unicode="&#xdb;" horiz-adv-x="1409" d="M90 1436l8 10q242 0 441 6l10 -10q-12 -541 -12 -813q0 -166 22 -230q43 -127 178 -127q88 0 142 54q31 31 45 82t16 95t2 138q0 391 -14 797l10 8l375 6l12 -8l-10 -844l-2 -78q-4 -63 -6 -95t-13.5 -92.5t-30 -98t-52 -84t-83.5 -78.5q-150 -104 -419 -105 q-365 0 -506 178q-45 55 -68.5 133t-29 128.5t-7.5 140.5v63q0 395 -8 824zM299 1561q115 184 174 317l12 12h428l13 -10q84 -174 170 -311l-9 -17l-321 -4l-12 13l-64 147l-84 -147l-12 -13h-285z" />
<glyph unicode="&#xdc;" horiz-adv-x="1409" d="M90 1436l8 10q242 0 441 6l10 -10q-12 -541 -12 -813q0 -166 22 -230q43 -127 178 -127q88 0 142 54q31 31 45 82t16 95t2 138q0 391 -14 797l10 8l375 6l12 -8l-10 -844l-2 -78q-4 -63 -6 -95t-13.5 -92.5t-30 -98t-52 -84t-83.5 -78.5q-150 -104 -419 -105 q-365 0 -506 178q-45 55 -68.5 133t-29 128.5t-7.5 140.5v63q0 395 -8 824zM307 1556q4 111 4 148q0 27 -1 76t-1 73l8 15l332 4l8 -12l-4 -295l-10 -13l-328 -6zM825 1548q2 47 2 140q0 90 -2 163l9 13l321 10l10 -14l-4 -299l-10 -15l-315 -10z" />
<glyph unicode="&#xdd;" horiz-adv-x="1366" d="M-12 1425l8 15q236 2 469 18l14 -8q55 -129 248 -485q127 276 209 475l10 6l400 6l8 -10q-211 -356 -449 -815v-121q0 -295 8 -494l-16 -12q-236 0 -434 -6l-10 12q12 264 12 508v107q-356 616 -477 804zM526 1556q84 203 111 324l10 8h379l6 -10l-248 -326l-12 -6h-237z " />
<glyph unicode="&#xde;" horiz-adv-x="1323" d="M109 1436l8 10q225 -2 432 6l10 -10q-2 -39 -4 -176h94q111 2 180.5 -2t169 -34t162.5 -89q129 -121 129 -338q0 -276 -184 -414q-70 -53 -171 -78.5t-173 -30t-207 -4.5q0 -27 2 -136t4 -130l-8 -10q-229 2 -434 -6l-8 10q8 606 8 907q0 186 -10 525zM551 580 q96 0 135 8q160 35 160 207q0 164 -174 176h-121v-391z" />
<glyph unicode="&#xdf;" horiz-adv-x="1323" d="M92 926v98q-2 98 0 152.5t23.5 140.5t66.5 141q133 170 475 170q209 0 328 -63q174 -92 174 -281q0 -96 -86 -248l-37 -59q-31 -49 -30 -82q0 -43 53 -100l61 -74q47 -53 74 -90t54.5 -107.5t27.5 -144.5q0 -197 -154 -307q-68 -45 -168 -64.5t-172 -19.5q-51 0 -151 14 l-17 12l-2 248l19 12q43 -25 76 -24q57 0 96 33.5t39 89.5q0 57 -62 139l-118 141q-51 72 -52 125q0 61 60 137l49 66q27 41 39 63.5t22.5 59.5t10.5 82q0 84 -34 135t-95 51q-156 0 -156 -221v-39q2 -101 14 -1098l-18 -14l-391 -6l-15 12q4 291 4 434q0 199 -8 486z" />
<glyph unicode="&#xe0;" d="M45 330q0 61 14.5 113.5t47 90t65.5 67.5t88 52.5t95 37t107.5 26.5t103.5 18t104 15q4 18 1 37.5t-12.5 35t-39 24.5t-76.5 9q-68 0 -136.5 -14.5t-110.5 -28.5t-122 -47l-14 8l12 258l12 17q236 72 445 71q252 0 360 -98q49 -45 70.5 -104.5t23.5 -133t0 -176.5 l-2 -131q0 -254 17 -461l-13 -16q-150 2 -387 -6l-14 14v78q-176 -106 -297 -106q-147 0 -244.5 99t-97.5 251zM256 1622l8 12q199 -2 361 4l12 -10q49 -178 125 -358l-10 -15h-265l-16 9q-94 166 -215 358zM436 383q0 -51 33 -80t84 -29q59 0 125 41v211q-35 -2 -52.5 -4 t-52 -8t-53 -15.5t-41 -24.5t-33 -37.5t-10.5 -53.5z" />
<glyph unicode="&#xe1;" d="M45 330q0 61 14.5 113.5t47 90t65.5 67.5t88 52.5t95 37t107.5 26.5t103.5 18t104 15q4 18 1 37.5t-12.5 35t-39 24.5t-76.5 9q-68 0 -136.5 -14.5t-110.5 -28.5t-122 -47l-14 8l12 258l12 17q236 72 445 71q252 0 360 -98q49 -45 70.5 -104.5t23.5 -133t0 -176.5 l-2 -131q0 -254 17 -461l-13 -16q-150 2 -387 -6l-14 14v78q-176 -106 -297 -106q-147 0 -244.5 99t-97.5 251zM436 383q0 -51 33 -80t84 -29q59 0 125 41v211q-35 -2 -52.5 -4t-52 -8t-53 -15.5t-41 -24.5t-33 -37.5t-10.5 -53.5zM438 1262q59 117 123 356l10 10l373 8 l8 -14l-229 -362l-12 -9l-265 -4z" />
<glyph unicode="&#xe2;" d="M45 330q0 61 14.5 113.5t47 90t65.5 67.5t88 52.5t95 37t107.5 26.5t103.5 18t104 15q4 18 1 37.5t-12.5 35t-39 24.5t-76.5 9q-68 0 -136.5 -14.5t-110.5 -28.5t-122 -47l-14 8l12 258l12 17q236 72 445 71q252 0 360 -98q49 -45 70.5 -104.5t23.5 -133t0 -176.5 l-2 -131q0 -254 17 -461l-13 -16q-150 2 -387 -6l-14 14v78q-176 -106 -297 -106q-147 0 -244.5 99t-97.5 251zM215 1262q94 174 178 362l13 10h438l10 -10q78 -184 166 -358l-6 -9l-332 -12l-12 10l-74 220l-80 -213l-10 -9h-285zM436 383q0 -51 33 -80t84 -29q59 0 125 41 v211q-35 -2 -52.5 -4t-52 -8t-53 -15.5t-41 -24.5t-33 -37.5t-10.5 -53.5z" />
<glyph unicode="&#xe3;" d="M45 330q0 61 14.5 113.5t47 90t65.5 67.5t88 52.5t95 37t107.5 26.5t103.5 18t104 15q4 18 1 37.5t-12.5 35t-39 24.5t-76.5 9q-68 0 -136.5 -14.5t-110.5 -28.5t-122 -47l-14 8l12 258l12 17q236 72 445 71q252 0 360 -98q49 -45 70.5 -104.5t23.5 -133t0 -176.5 l-2 -131q0 -254 17 -461l-13 -16q-150 2 -387 -6l-14 14v78q-176 -106 -297 -106q-147 0 -244.5 99t-97.5 251zM227 1278v246l6 16q86 70 195 70q33 0 90 -15l90 -30q94 -33 144 -33q43 0 90 24q36 25 102 74l8 -8l6 -270l-8 -17q-106 -84 -202 -84q-41 0 -123 25l-66 24 q-84 31 -137 31q-55 0 -186 -59zM436 383q0 -51 33 -80t84 -29q59 0 125 41v211q-35 -2 -52.5 -4t-52 -8t-53 -15.5t-41 -24.5t-33 -37.5t-10.5 -53.5z" />
<glyph unicode="&#xe4;" d="M45 330q0 61 14.5 113.5t47 90t65.5 67.5t88 52.5t95 37t107.5 26.5t103.5 18t104 15q4 18 1 37.5t-12.5 35t-39 24.5t-76.5 9q-68 0 -136.5 -14.5t-110.5 -28.5t-122 -47l-14 8l12 258l12 17q236 72 445 71q252 0 360 -98q49 -45 70.5 -104.5t23.5 -133t0 -176.5 l-2 -131q0 -254 17 -461l-13 -16q-150 2 -387 -6l-14 14v78q-176 -106 -297 -106q-147 0 -244.5 99t-97.5 251zM178 1528l8 8q176 8 334 20l8 -8v-321l-12 -10l-319 -23l-11 10zM436 383q0 -51 33 -80t84 -29q59 0 125 41v211q-35 -2 -52.5 -4t-52 -8t-53 -15.5t-41 -24.5 t-33 -37.5t-10.5 -53.5zM659 1528l7 10l329 27l9 -6v-332l-9 -8l-315 -25l-12 8z" />
<glyph unicode="&#xe5;" d="M45 330q0 61 14.5 113.5t47 90t65.5 67.5t88 52.5t95 37t107.5 26.5t103.5 18t104 15q4 18 1 37.5t-12.5 35t-39 24.5t-76.5 9q-68 0 -136.5 -14.5t-110.5 -28.5t-122 -47l-14 8l12 258l12 17q236 72 445 71q252 0 360 -98q49 -45 70.5 -104.5t23.5 -133t0 -176.5 l-2 -131q0 -254 17 -461l-13 -16q-150 2 -387 -6l-14 14v78q-176 -106 -297 -106q-147 0 -244.5 99t-97.5 251zM317 1460q0 113 74 184.5t199 71.5q123 0 195.5 -68.5t76.5 -177.5q4 -113 -68.5 -182t-203.5 -69q-129 0 -201 67.5t-72 173.5zM436 383q0 -51 33 -80t84 -29 q59 0 125 41v211q-35 -2 -52.5 -4t-52 -8t-53 -15.5t-41 -24.5t-33 -37.5t-10.5 -53.5zM514 1466q0 -51 20.5 -85.5t55.5 -34.5t56.5 36t19.5 95q-4 113 -76 112q-76 0 -76 -123z" />
<glyph unicode="&#xe6;" horiz-adv-x="1748" d="M33 338q0 35 9 73t31.5 88t77 93t132.5 63q119 31 364 27q0 82 -14 111q-37 76 -174 75q-43 0 -86 -6q-111 -16 -242 -80l-18 13l14 233l14 19q213 76 420 75q94 0 162 -19.5t92.5 -36.5t52.5 -48q53 37 83 53t97.5 33.5t155.5 17.5q211 0 332 -108q70 -63 108.5 -169 t46 -176.5t13.5 -193.5l-14 -14h-652q6 -39 12.5 -59.5t24 -46t49.5 -46.5q76 -51 209 -51q186 0 318 76l14 -8l-10 -258l-13 -19q-168 -72 -380 -72q-205 0 -334 62q-51 25 -109 78q-66 -49 -105.5 -73t-110.5 -45.5t-152 -21.5q-123 0 -210 36t-130 95.5t-60.5 115 t-17.5 114.5zM410 362q0 -43 33.5 -74.5t93.5 -31.5q65 0 145 57q-27 70 -39 146q-23 2 -68 2q-166 0 -165 -99zM1028 682h291q-2 35 -6 57.5t-16.5 56t-42 52t-74.5 18.5q-41 0 -66 -14q-72 -39 -86 -170z" />
<glyph unicode="&#xe7;" horiz-adv-x="980" d="M51 541q0 256 153.5 417.5t444.5 161.5q158 0 297 -57l10 -12q-20 -131 -32 -281l-23 -6q-76 76 -180 76q-106 0 -174 -77t-68 -208q0 -123 65.5 -207t198.5 -84q115 1 201 60l14 -9q-4 -119 -12 -278l-10 -12q-147 -49 -299 -50q-291 0 -438.5 163t-147.5 403zM315 -426 q92 182 162 332l17 12q98 -2 243 -2l13 -12q-53 -158 -109 -332l-14 -12q-152 2 -299 0z" />
<glyph unicode="&#xe8;" horiz-adv-x="1150" d="M49 547q0 152 49 266.5t131 179t176.5 96t196.5 31.5q197 0 318 -96q66 -51 106.5 -122t56 -155.5t19.5 -138t4 -133.5l-14 -16l-635 -8q10 -55 28.5 -88t65.5 -62q72 -43 188 -43q190 0 314 82l14 -10l-10 -262l-13 -19q-37 -16 -69 -29q-135 -45 -316 -45 q-248 0 -391 99q-219 150 -219 473zM231 1622l9 12q198 -2 360 4l12 -10q49 -178 125 -358l-10 -15h-264l-17 9q-94 166 -215 358zM446 676l275 4q-8 184 -131 184q-29 0 -51 -10q-87 -37 -93 -178z" />
<glyph unicode="&#xe9;" horiz-adv-x="1150" d="M49 547q0 152 49 266.5t131 179t176.5 96t196.5 31.5q197 0 318 -96q66 -51 106.5 -122t56 -155.5t19.5 -138t4 -133.5l-14 -16l-635 -8q10 -55 28.5 -88t65.5 -62q72 -43 188 -43q190 0 314 82l14 -10l-10 -262l-13 -19q-37 -16 -69 -29q-135 -45 -316 -45 q-248 0 -391 99q-219 150 -219 473zM414 1262q59 117 123 356l10 10l373 8l8 -14l-230 -362l-12 -9l-264 -4zM446 676l275 4q-8 184 -131 184q-29 0 -51 -10q-87 -37 -93 -178z" />
<glyph unicode="&#xea;" horiz-adv-x="1150" d="M49 547q0 152 49 266.5t131 179t176.5 96t196.5 31.5q197 0 318 -96q66 -51 106.5 -122t56 -155.5t19.5 -138t4 -133.5l-14 -16l-635 -8q10 -55 28.5 -88t65.5 -62q72 -43 188 -43q190 0 314 82l14 -10l-10 -262l-13 -19q-37 -16 -69 -29q-135 -45 -316 -45 q-248 0 -391 99q-219 150 -219 473zM190 1262q94 174 179 362l12 10h438l10 -10q78 -184 166 -358l-6 -9l-332 -12l-12 10l-74 220l-79 -213l-11 -9h-284zM446 676l275 4q-8 184 -131 184q-29 0 -51 -10q-87 -37 -93 -178z" />
<glyph unicode="&#xeb;" horiz-adv-x="1150" d="M49 547q0 152 49 266.5t131 179t176.5 96t196.5 31.5q197 0 318 -96q66 -51 106.5 -122t56 -155.5t19.5 -138t4 -133.5l-14 -16l-635 -8q10 -55 28.5 -88t65.5 -62q72 -43 188 -43q190 0 314 82l14 -10l-10 -262l-13 -19q-37 -16 -69 -29q-135 -45 -316 -45 q-248 0 -391 99q-219 150 -219 473zM156 1528l8 8q176 8 334 20l8 -8v-321l-12 -10l-320 -23l-10 10zM446 676l275 4q-8 184 -131 184q-29 0 -51 -10q-87 -37 -93 -178zM637 1528l6 10l330 27l8 -6v-332l-8 -8l-316 -25l-12 8z" />
<glyph unicode="&#xec;" horiz-adv-x="641" d="M-25 1622l9 12q198 -2 360 4l12 -10q49 -178 125 -358l-10 -15h-264l-17 9q-94 166 -215 358zM86 1049l12 12q219 31 430 72l11 -17q-4 -303 -4 -454q0 -316 20 -648l-14 -14q-240 2 -428 -6l-15 14q12 369 13 555q0 244 -25 486z" />
<glyph unicode="&#xed;" horiz-adv-x="641" d="M86 1049l12 12q219 31 430 72l11 -17q-4 -303 -4 -454q0 -316 20 -648l-14 -14q-240 2 -428 -6l-15 14q12 369 13 555q0 244 -25 486zM160 1262q59 117 123 356l10 10l373 8l8 -14l-230 -362l-12 -9l-264 -4z" />
<glyph unicode="&#xee;" horiz-adv-x="641" d="M-63 1262q94 174 178 362l12 10h438l10 -10q78 -184 166 -358l-6 -9l-332 -12l-12 10l-74 220l-79 -213l-11 -9h-284zM86 1049l12 12q219 31 430 72l11 -17q-4 -303 -4 -454q0 -316 20 -648l-14 -14q-240 2 -428 -6l-15 14q12 369 13 555q0 244 -25 486z" />
<glyph unicode="&#xef;" horiz-adv-x="641" d="M-98 1528l8 8q176 8 334 20l8 -8v-321l-12 -10l-320 -23l-10 10zM86 1049l12 12q219 31 430 72l11 -17q-4 -303 -4 -454q0 -316 20 -648l-14 -14q-240 2 -428 -6l-15 14q12 369 13 555q0 244 -25 486zM383 1528l6 10l330 27l8 -6v-332l-8 -8l-316 -25l-12 8z" />
<glyph unicode="&#xf0;" horiz-adv-x="1236" d="M57 543q0 150 49.5 264.5t130 177t169 92t178.5 29.5q84 0 139 -33q-39 90 -86 164q-268 -78 -301 -90l-27 -8l-28 8q-37 82 -80 162l12 22q190 47 293 78q-100 123 -146 158l13 20q55 8 143 23q25 4 73 14t73 16l30 -10q80 -76 125 -129q121 35 199 64l24 -6 q29 -62 86 -166l-10 -25q-8 -2 -46 -11t-73.5 -17.5t-48.5 -12.5q231 -350 232 -719q0 -299 -138 -454q-156 -176 -442 -177q-256 0 -401 152q-141 145 -142 414zM481 545q0 -66 3 -108t15.5 -95t42 -81t76.5 -28q84 0 116 88.5t28 266.5q-4 143 -34 214.5t-105 71.5 q-82 0 -112 -79.5t-30 -249.5z" />
<glyph unicode="&#xf1;" horiz-adv-x="1280" d="M78 1053l12 12q219 31 416 72l20 -19l-4 -112q57 41 88 59q111 59 244 59q174 0 254 -125q41 -61 50 -144t9 -275v-111q5 -260 17 -455l-17 -14q-205 2 -403 -6l-10 12q0 35 1 106.5t1 106.5v96q0 287 -15 379q-14 113 -104 113q-39 0 -113 -37q-2 -57 4 -408 q2 -162 11 -348l-11 -14q-211 2 -411 -6l-13 14q4 258 5 387q0 365 -31 658zM268 1278v246l6 16q86 70 195 70q33 0 90 -15l90 -30q94 -33 144 -33q43 0 90 24q36 25 102 74l8 -8l6 -270l-8 -17q-106 -84 -203 -84q-41 0 -122 25l-66 24q-84 31 -137 31q-55 0 -187 -59z" />
<glyph unicode="&#xf2;" horiz-adv-x="1236" d="M57 539q0 274 119 413q143 168 445 168q274 0 417 -141q142 -137 142 -430q0 -242 -90 -373q-143 -201 -467 -201q-158 0 -271 43q-295 106 -295 521zM274 1622l9 12q198 -2 360 4l12 -10q49 -178 125 -358l-10 -15h-264l-17 9q-94 166 -215 358zM481 528q0 -117 17 -182 q29 -117 120 -117q66 0 103 76q35 65 35 262q0 301 -133 301q-86 0 -114 -87t-28 -253z" />
<glyph unicode="&#xf3;" horiz-adv-x="1236" d="M57 539q0 274 119 413q143 168 445 168q274 0 417 -141q142 -137 142 -430q0 -242 -90 -373q-143 -201 -467 -201q-158 0 -271 43q-295 106 -295 521zM457 1262q59 117 123 356l10 10l373 8l8 -14l-230 -362l-12 -9l-264 -4zM481 528q0 -117 17 -182q29 -117 120 -117 q66 0 103 76q35 65 35 262q0 301 -133 301q-86 0 -114 -87t-28 -253z" />
<glyph unicode="&#xf4;" horiz-adv-x="1236" d="M57 539q0 274 119 413q143 168 445 168q274 0 417 -141q142 -137 142 -430q0 -242 -90 -373q-143 -201 -467 -201q-158 0 -271 43q-295 106 -295 521zM233 1262q94 174 179 362l12 10h438l10 -10q78 -184 166 -358l-6 -9l-332 -12l-12 10l-74 220l-79 -213l-11 -9h-284z M481 528q0 -117 17 -182q29 -117 120 -117q66 0 103 76q35 65 35 262q0 301 -133 301q-86 0 -114 -87t-28 -253z" />
<glyph unicode="&#xf5;" horiz-adv-x="1236" d="M57 539q0 274 119 413q143 168 445 168q274 0 417 -141q142 -137 142 -430q0 -242 -90 -373q-143 -201 -467 -201q-158 0 -271 43q-295 106 -295 521zM246 1278v246l6 16q86 70 194 70q33 0 91 -15l90 -30q94 -33 143 -33q43 0 90 24q37 25 103 74l8 -8l6 -270l-8 -17 q-106 -84 -203 -84q-41 0 -123 25l-65 24q-84 31 -138 31q-55 0 -186 -59zM481 528q0 -117 17 -182q29 -117 120 -117q66 0 103 76q35 65 35 262q0 301 -133 301q-86 0 -114 -87t-28 -253z" />
<glyph unicode="&#xf6;" horiz-adv-x="1236" d="M57 539q0 274 119 413q143 168 445 168q274 0 417 -141q142 -137 142 -430q0 -242 -90 -373q-143 -201 -467 -201q-158 0 -271 43q-295 106 -295 521zM207 1528l8 8q176 8 334 20l8 -8v-321l-12 -10l-320 -23l-10 10zM481 528q0 -117 17 -182q29 -117 120 -117 q66 0 103 76q35 65 35 262q0 301 -133 301q-86 0 -114 -87t-28 -253zM688 1528l6 10l330 27l8 -6v-332l-8 -8l-315 -25l-13 8z" />
<glyph unicode="&#xf7;" horiz-adv-x="1366" d="M0 465v260h1366v-260h-1366zM516 225q0 70 48 119t116 49q72 0 120 -48t48 -118q0 -66 -46 -115t-116 -49q-76 0 -123 47.5t-47 114.5zM516 958q0 70 48 119t116 49q72 0 120 -47.5t48 -117.5q0 -66 -46 -115t-116 -49q-76 0 -123 47t-47 114z" />
<glyph unicode="&#xf8;" horiz-adv-x="1236" d="M-4 70v14l135 117q-78 123 -78 331q0 309 156 453q145 135 412 135q96 0 178 -21.5t120.5 -43t90.5 -58.5l131 123l20 -2q33 -39 74 -80l2 -16l-141 -129q84 -158 84 -367q0 -143 -37 -247.5t-91.5 -162t-135 -90t-149.5 -42t-155 -9.5q-121 0 -205.5 21.5t-115.5 42 t-74 57.5l-125 -116l-16 -3zM469 506l279 254q-35 123 -130 123q-43 0 -72.5 -26t-44 -57.5t-22.5 -91t-9 -98t-1 -104.5zM489 338q20 -59 48 -90t84 -31q51 0 83.5 36t45 102.5t15.5 115.5t1 121z" />
<glyph unicode="&#xf9;" horiz-adv-x="1280" d="M102 1079l15 13l391 18l16 -18q0 -37 1 -110t1 -110q0 -23 -2 -165t-2 -168q0 -66 2 -97.5t12.5 -74.5t35 -61.5t65.5 -18.5q43 0 121 41l-13 749l13 15q199 4 397 18l16 -20q-4 -434 -4 -654q0 -225 9 -422l-15 -14q-207 0 -385 -6l-14 14l2 94q-53 -41 -78 -53 q-125 -76 -256 -76q-156 0 -248 115q-51 63 -62 148.5t-9 273.5v88q2 270 -9 481zM297 1622l8 12q199 -2 361 4l12 -10q49 -178 125 -358l-10 -15h-265l-16 9q-94 166 -215 358z" />
<glyph unicode="&#xfa;" horiz-adv-x="1280" d="M102 1079l15 13l391 18l16 -18q0 -37 1 -110t1 -110q0 -23 -2 -165t-2 -168q0 -66 2 -97.5t12.5 -74.5t35 -61.5t65.5 -18.5q43 0 121 41l-13 749l13 15q199 4 397 18l16 -20q-4 -434 -4 -654q0 -225 9 -422l-15 -14q-207 0 -385 -6l-14 14l2 94q-53 -41 -78 -53 q-125 -76 -256 -76q-156 0 -248 115q-51 63 -62 148.5t-9 273.5v88q2 270 -9 481zM479 1262q59 117 123 356l10 10l373 8l8 -14l-229 -362l-12 -9l-265 -4z" />
<glyph unicode="&#xfb;" horiz-adv-x="1280" d="M102 1079l15 13l391 18l16 -18q0 -37 1 -110t1 -110q0 -23 -2 -165t-2 -168q0 -66 2 -97.5t12.5 -74.5t35 -61.5t65.5 -18.5q43 0 121 41l-13 749l13 15q199 4 397 18l16 -20q-4 -434 -4 -654q0 -225 9 -422l-15 -14q-207 0 -385 -6l-14 14l2 94q-53 -41 -78 -53 q-125 -76 -256 -76q-156 0 -248 115q-51 63 -62 148.5t-9 273.5v88q2 270 -9 481zM256 1262q94 174 178 362l12 10h439l10 -10q78 -184 166 -358l-6 -9l-332 -12l-12 10l-74 220l-80 -213l-10 -9h-285z" />
<glyph unicode="&#xfc;" horiz-adv-x="1280" d="M102 1079l15 13l391 18l16 -18q0 -37 1 -110t1 -110q0 -23 -2 -165t-2 -168q0 -66 2 -97.5t12.5 -74.5t35 -61.5t65.5 -18.5q43 0 121 41l-13 749l13 15q199 4 397 18l16 -20q-4 -434 -4 -654q0 -225 9 -422l-15 -14q-207 0 -385 -6l-14 14l2 94q-53 -41 -78 -53 q-125 -76 -256 -76q-156 0 -248 115q-51 63 -62 148.5t-9 273.5v88q2 270 -9 481zM229 1528l9 8q175 8 333 20l9 -8v-321l-13 -10l-319 -23l-10 10zM711 1528l6 10l330 27l8 -6v-332l-8 -8l-316 -25l-12 8z" />
<glyph unicode="&#xfd;" horiz-adv-x="1110" d="M-20 1077l8 15q221 2 438 18l16 -12q78 -340 154 -609q80 274 162 596l12 13l328 6l12 -14l-246 -697l-104 -311q-104 -330 -164 -582l-16 -12q-183 0 -369 -6l-10 16q104 246 180 451q-115 352 -170 506q-16 47 -51 142t-51 142q-72 201 -129 338zM393 1262 q59 117 123 356l10 10l373 8l8 -14l-229 -362l-12 -9l-265 -4z" />
<glyph unicode="&#xfe;" horiz-adv-x="1280" d="M88 1548l14 13q213 31 412 71l10 -14q0 -16 -1 -48t-1 -48q-6 -154 -6 -371l-2 -125q59 35 90 51.5t81 29.5t110 13q209 0 324.5 -153.5t115.5 -366.5q0 -295 -193 -457q-168 -141 -507 -147q4 -135 9 -307t5 -189l-10 -12q-29 2 -84 2q-29 2 -84 2q-82 0 -252 -10 l-15 12q4 209 2 672v817q0 356 -18 565zM530 803q1 -342 5 -541q135 2 209.5 74t74.5 242q0 70 -17.5 122t-39 75.5t-51 37.5t-44 16t-28.5 2q-41 0 -109 -28z" />
<glyph unicode="&#xff;" horiz-adv-x="1110" d="M-20 1077l8 15q221 2 438 18l16 -12q78 -340 154 -609q80 274 162 596l12 13l328 6l12 -14l-246 -697l-104 -311q-104 -330 -164 -582l-16 -12q-183 0 -369 -6l-10 16q104 246 180 451q-115 352 -170 506q-16 47 -51 142t-51 142q-72 201 -129 338zM135 1528l8 8 q176 8 334 20l8 -8v-321l-12 -10l-319 -23l-11 10zM616 1528l7 10l329 27l9 -6v-332l-9 -8l-315 -25l-12 8z" />
<glyph unicode="&#x152;" horiz-adv-x="1921" d="M66 698q0 403 200 588q53 51 105.5 82t182.5 58.5t320 27.5h99h844l12 -12l-14 -285l-13 -10h-469v-260h436l11 -10l-19 -267l-16 -12h-410v-281q115 -4 203 -4q102 0 303 9l12 -13l-18 -295l-12 -14q-53 0 -155.5 1t-154.5 1q-125 0 -509 -8h-107q-82 0 -126 1t-121 7 t-124 18.5t-111.5 37t-108.5 60.5t-90 91t-79 127q-72 147 -71 362zM526 719q0 -223 75 -315.5t220 -92.5q45 0 88 6v832q-59 0 -91 -2t-85 -17.5t-90 -48.5q-117 -102 -117 -362z" />
<glyph unicode="&#x153;" horiz-adv-x="1878" d="M57 545q0 317 172 459q139 117 389 116q215 0 359 -121q152 121 356 121q170 0 281 -71q59 -39 102 -96.5t64.5 -109.5t33 -128t14.5 -122t3 -118l-14 -16l-643 -8q12 -61 29.5 -92t66.5 -58q74 -43 186 -43q82 0 180 21q68 16 142 61l14 -10l-10 -262l-13 -19 q-174 -74 -378 -74q-92 0 -193 19q-63 12 -101 31.5t-104 68.5q-47 -33 -78.5 -52t-116.5 -43t-186 -24q-326 0 -465 205q-90 133 -90 365zM481 551q0 -168 30 -244t110 -76q74 0 106.5 73t32.5 265q0 158 -37 236q-33 66 -102 65q-72 0 -106 -71.5t-34 -247.5zM1163 676 l285 4q-4 92 -33 133q-37 53 -102 53q-45 0 -80 -20q-66 -41 -70 -170z" />
<glyph unicode="&#x178;" horiz-adv-x="1366" d="M-12 1425l8 15q236 2 469 18l14 -8q55 -129 248 -485q127 276 209 475l10 6l400 6l8 -10q-211 -356 -449 -815v-121q0 -295 8 -494l-16 -12q-236 0 -434 -6l-10 12q12 264 12 508v107q-356 616 -477 804zM260 1556q4 111 4 148q0 27 -1 76t-1 73l8 15l332 4l8 -12 l-4 -295l-10 -13l-328 -6zM778 1548q2 47 2 140q0 90 -2 163l8 13l322 10l10 -14l-4 -299l-10 -15l-316 -10z" />
<glyph unicode="&#x2c6;" horiz-adv-x="598" d="M-102 1262q94 174 178 362l12 10h438l11 -10q78 -184 165 -358l-6 -9l-331 -12l-13 10l-73 220l-80 -213l-11 -9h-284z" />
<glyph unicode="&#x2dc;" horiz-adv-x="598" d="M-66 1278v246l7 16q86 70 194 70q33 0 90 -15l90 -30q94 -33 144 -33q43 0 90 24q36 25 102 74l8 -8l7 -270l-9 -17q-106 -84 -202 -84q-41 0 -123 25l-66 24q-84 31 -137 31q-55 0 -186 -59z" />
<glyph unicode="&#x2000;" horiz-adv-x="1003" />
<glyph unicode="&#x2001;" horiz-adv-x="2007" />
<glyph unicode="&#x2002;" horiz-adv-x="1003" />
<glyph unicode="&#x2003;" horiz-adv-x="2007" />
<glyph unicode="&#x2004;" horiz-adv-x="669" />
<glyph unicode="&#x2005;" horiz-adv-x="501" />
<glyph unicode="&#x2006;" horiz-adv-x="334" />
<glyph unicode="&#x2007;" horiz-adv-x="334" />
<glyph unicode="&#x2008;" horiz-adv-x="250" />
<glyph unicode="&#x2009;" horiz-adv-x="401" />
<glyph unicode="&#x200a;" horiz-adv-x="111" />
<glyph unicode="&#x2010;" horiz-adv-x="811" d="M70 436l12 287l12 14h639l8 -10l-14 -287l-12 -14h-637z" />
<glyph unicode="&#x2011;" horiz-adv-x="811" d="M70 436l12 287l12 14h639l8 -10l-14 -287l-12 -14h-637z" />
<glyph unicode="&#x2012;" horiz-adv-x="811" d="M70 436l12 287l12 14h639l8 -10l-14 -287l-12 -14h-637z" />
<glyph unicode="&#x2013;" d="M70 444l20 285l14 16q287 -10 517 -10q163 0 491 8l12 -14l-20 -295l-12 -14q-324 12 -488 12q-72 0 -262 -1t-264 -1z" />
<glyph unicode="&#x2014;" horiz-adv-x="1449" d="M70 444q6 70 20 285l14 14q426 -10 768 -10q297 0 496 10l14 -14q-16 -197 -22 -295l-12 -16q-248 14 -529 14q-246 0 -741 -4z" />
<glyph unicode="&#x2018;" horiz-adv-x="555" d="M6 1061q145 268 236 495l12 11q57 -2 135 -2q104 0 156 2l6 -13l-129 -487l-8 -10l-402 -8z" />
<glyph unicode="&#x2019;" horiz-adv-x="555" d="M4 1063q78 285 129 485l8 11l402 8l4 -13q-133 -246 -234 -495l-14 -10q-123 4 -137 4q-51 0 -154 -4z" />
<glyph unicode="&#x201a;" horiz-adv-x="555" d="M4 -143q78 285 129 485l8 10l402 8l4 -12q-133 -246 -234 -495l-14 -11q-123 4 -137 4q-51 0 -154 -4z" />
<glyph unicode="&#x201c;" horiz-adv-x="1067" d="M6 1061q133 246 236 495l12 11q53 -2 135 -2q104 0 156 2l6 -13q-111 -408 -129 -487l-8 -10l-402 -8zM518 1061q152 283 236 495l14 11q53 -2 135 -2q102 0 154 2l6 -13l-129 -487l-10 -10l-400 -8z" />
<glyph unicode="&#x201d;" horiz-adv-x="1067" d="M4 1063q41 145 129 485l8 11l402 8l4 -13q-131 -246 -234 -495l-14 -10q-127 4 -137 4q-51 0 -154 -4zM516 1063l129 485l8 11l402 8l4 -13q-158 -301 -234 -495l-14 -10q-123 4 -137 4q-51 0 -154 -4z" />
<glyph unicode="&#x201e;" horiz-adv-x="1067" d="M4 -143q12 49 35.5 136t34.5 124q47 168 59 225l8 10l402 10l4 -12q-121 -229 -234 -497l-14 -11q-94 4 -141 4t-150 -4zM516 -143l129 485l8 10l402 10l4 -12q-141 -266 -234 -497l-14 -11q-119 4 -145 4q-47 0 -146 -4z" />
<glyph unicode="&#x2022;" horiz-adv-x="681" d="M25 723q0 133 92 225t225 92t225 -92t92 -225t-92 -225t-225 -92t-225 92t-92 225z" />
<glyph unicode="&#x2026;" horiz-adv-x="2048" d="M178 147q0 80 51.5 124t110.5 44q70 0 116 -45.5t48 -115.5q0 -63 -44 -114.5t-120 -51.5q-61 0 -111.5 44t-50.5 115zM860 152q0 68 48 114.5t120 46.5q63 0 111.5 -44.5t48.5 -114.5q0 -63 -43 -114.5t-119 -51.5q-66 0 -116 45t-50 119zM1544 152q0 72 50.5 117.5 t113.5 45.5q76 0 119 -50t43 -111q0 -70 -47 -118t-111 -48q-68 0 -118 45t-50 119z" />
<glyph unicode="&#x202f;" horiz-adv-x="401" />
<glyph unicode="&#x2039;" horiz-adv-x="555" d="M4 578v22q6 12 97.5 171t111.5 200l14 14q115 -6 291 -4l12 -18q-137 -229 -200 -369q10 -20 194 -377l-8 -24q-170 -2 -276 0l-19 10q-14 27 -68.5 121t-101.5 174z" />
<glyph unicode="&#x203a;" horiz-adv-x="555" d="M25 211q133 221 200 369q-10 20 -194 376l8 25q147 2 276 0l17 -10q14 -27 69.5 -120t102.5 -175l47 -80v-23q-2 -6 -94 -166.5t-115 -203.5l-14 -15q-117 6 -291 5z" />
<glyph unicode="&#x205f;" horiz-adv-x="501" />
<glyph unicode="&#x20ac;" d="M-6 442q37 102 57 174l12 13q39 0 109 -2q-2 23 -2 65q0 35 2 51h-25q-39 -2 -73.5 -2h-59.5l-12 17q45 121 57 174l13 12q53 0 133 -2q47 156 156.5 266.5t230.5 158.5t239 48q258 0 392 -76l8 -14q-47 -127 -92 -278l-15 -9q-2 2 -13 10.5t-18.5 13.5t-22.5 13 t-31.5 13.5t-38 11.5t-49 9t-58.5 3q-84 0 -156.5 -43t-109.5 -131q53 0 125.5 1t123 2t76.5 1q90 2 123 4l12 -12q-45 -131 -59 -180l-12 -13q-53 2 -109 2l-336 2q-2 -16 -2 -53q0 -25 4 -69q139 0 275 4q90 2 123 4l12 -13q-37 -106 -57 -180l-13 -12q-53 2 -108 2 l-178 2q43 -86 116.5 -125t151.5 -39q188 0 289 82l16 -8l-14 -297l-10 -12q-174 -61 -357 -62q-201 0 -373 120t-239 339h-68q-82 0 -133 -2z" />
<glyph unicode="&#x2122;" horiz-adv-x="1409" d="M-2 1309v137h590v-137h-207v-543h-172v543h-211zM643 766v680h217l156 -492l145 492h219v-680h-168l9 362l10 138l-27 -111l-117 -389h-151l-121 393l-29 105l13 -136l12 -362h-168z" />
<glyph unicode="&#xe000;" horiz-adv-x="1105" d="M0 0v1106h1106v-1106h-1106z" />
<glyph unicode="&#xfb01;" horiz-adv-x="1409" d="M2 834q6 139 14 245l17 19q82 -6 137 -4q-2 18 -2 137q0 96 14.5 162.5t53 127t120.5 91t205 30.5t230 -18l10 -12q-14 -111 -21 -266l-16 -11q-41 12 -70 13q-37 0 -61.5 -14.5t-35.5 -43t-14 -42t-5 -40.5q-2 -49 -3 -118q111 2 177 8l10 -15q-2 -43 -7.5 -109.5 t-11.5 -142.5l-16 -12q-49 2 -149 2q-2 -489 16 -807l-14 -14q-211 2 -408 -4l-14 10q8 137 12 819q-25 0 -156 -4zM854 1049l12 12q225 31 430 72l11 -17v-98q-4 -221 -4 -334q0 -377 20 -670l-14 -14q-225 2 -428 -6l-15 14q12 332 13 529q0 266 -25 512zM864 1540l13 16 q202 25 405 54l12 -15q-4 -233 -2 -327l-12 -13q-186 -23 -391 -59l-19 12q0 170 -6 332z" />
<glyph unicode="&#xfb02;" horiz-adv-x="1409" d="M2 834q6 139 14 245l17 19q82 -6 137 -4q-2 18 -2 137q0 96 14.5 162.5t53 127t120.5 91t205 30.5t230 -18l10 -12q-14 -111 -21 -266l-16 -11q-41 12 -70 13q-37 0 -61.5 -14.5t-35.5 -43t-14 -42t-5 -40.5q-2 -49 -3 -118q111 2 177 8l10 -15q-2 -43 -7.5 -109.5 t-11.5 -142.5l-16 -12q-49 2 -149 2q-2 -489 16 -807l-14 -14q-211 2 -408 -4l-14 10q8 137 12 819q-25 0 -156 -4zM850 1548l12 13q289 49 424 73l17 -18q-4 -295 -5 -412v-553q1 -262 17 -637l-15 -14q-231 2 -423 -6l-17 14q12 305 12 715q0 268 -2 403q-2 221 -20 422z " />
</font>
</defs>
</svg>
